<?xml version="1.0" encoding="utf-8"?>
<!-- Generator: Adobe Illustrator 23.0.2, SVG Export Plug-In . SVG Version: 6.00 Build 0)  -->
<svg version="1.0" id="Layer_2" xmlns="http://www.w3.org/2000/svg" xmlns:xlink="http://www.w3.org/1999/xlink" x="0px" y="0px"
	 width="1024px" height="768px" viewBox="0 0 1024 768" style="enable-background:new 0 0 1024 768;" xml:space="preserve">
<style type="text/css">
	.st0{fill:#FFFFFF;}
</style>
<path class="st0" d="M516,210.5c-0.6,0-1-0.4-1-1V209c0-0.6,0.4-1,1-1s1,0.4,1,1v0.5C517,210.1,516.6,210.5,516,210.5z M516,206
	c-0.6,0-1-0.4-1-1v-0.5c0-0.6,0.4-1,1-1s1,0.4,1,1v0.5C517,205.6,516.6,206,516,206z M516,201.5c-0.6,0-1-0.4-1-1V200
	c0-0.6,0.4-1,1-1s1,0.4,1,1v0.5C517,201.1,516.6,201.5,516,201.5z M516,197c-0.6,0-1-0.4-1-1v-0.5c0-0.6,0.4-1,1-1s1,0.4,1,1v0.5
	C517,196.6,516.6,197,516,197z M516,192.5c-0.6,0-1-0.4-1-1V191c0-0.6,0.4-1,1-1s1,0.4,1,1v0.5C517,192.1,516.6,192.5,516,192.5z
	 M516,188c-0.6,0-1-0.4-1-1v-0.5c0-0.6,0.4-1,1-1s1,0.4,1,1v0.5C517,187.6,516.6,188,516,188z M516,183.5c-0.6,0-1-0.4-1-1V182
	c0-0.6,0.4-1,1-1s1,0.4,1,1v0.5C517,183.1,516.6,183.5,516,183.5z M516,179c-0.6,0-1-0.4-1-1v-0.5c0-0.6,0.4-1,1-1s1,0.4,1,1v0.5
	C517,178.6,516.6,179,516,179z M516,174.5c-0.6,0-1-0.4-1-1V173c0-0.6,0.4-1,1-1s1,0.4,1,1v0.5C517,174.1,516.6,174.5,516,174.5z
	 M516,170c-0.6,0-1-0.4-1-1v-0.5c0-0.6,0.4-1,1-1s1,0.4,1,1v0.5C517,169.6,516.6,170,516,170z M516,165.5c-0.6,0-1-0.4-1-1V164
	c0-0.6,0.4-1,1-1s1,0.4,1,1v0.5C517,165.1,516.6,165.5,516,165.5z M516,161c-0.6,0-1-0.4-1-1v-0.5c0-0.6,0.4-1,1-1s1,0.4,1,1v0.5
	C517,160.6,516.6,161,516,161z M516,156.5c-0.6,0-1-0.4-1-1V155c0-0.6,0.4-1,1-1s1,0.4,1,1v0.5C517,156.1,516.6,156.5,516,156.5z
	 M516,152c-0.6,0-1-0.4-1-1v-0.5c0-0.6,0.4-1,1-1s1,0.4,1,1v0.5C517,151.6,516.6,152,516,152z M516,147.5c-0.6,0-1-0.4-1-1V146
	c0-0.6,0.4-1,1-1s1,0.4,1,1v0.5C517,147.1,516.6,147.5,516,147.5z M516,143c-0.6,0-1-0.4-1-1v-0.5c0-0.6,0.4-1,1-1s1,0.4,1,1v0.5
	C517,142.6,516.6,143,516,143z M516,138.5c-0.6,0-1-0.4-1-1V137c0-0.6,0.4-1,1-1s1,0.4,1,1v0.5C517,138.1,516.6,138.5,516,138.5z
	 M516,134c-0.6,0-1-0.4-1-1v-0.5c0-0.6,0.4-1,1-1s1,0.4,1,1v0.5C517,133.6,516.6,134,516,134z M516,129.5c-0.6,0-1-0.4-1-1V128
	c0-0.6,0.4-1,1-1s1,0.4,1,1v0.5C517,129.1,516.6,129.5,516,129.5z M516,125c-0.6,0-1-0.4-1-1v-0.5c0-0.6,0.4-1,1-1s1,0.4,1,1v0.5
	C517,124.6,516.6,125,516,125z M516,120.5c-0.6,0-1-0.4-1-1V119c0-0.6,0.4-1,1-1s1,0.4,1,1v0.5C517,120.1,516.6,120.5,516,120.5z
	 M516,116c-0.6,0-1-0.4-1-1v-0.5c0-0.6,0.4-1,1-1s1,0.4,1,1v0.5C517,115.6,516.6,116,516,116z M516,111.5c-0.6,0-1-0.4-1-1V110
	c0-0.6,0.4-1,1-1s1,0.4,1,1v0.5C517,111.1,516.6,111.5,516,111.5z M516,107c-0.6,0-1-0.4-1-1v-0.5c0-0.6,0.4-1,1-1s1,0.4,1,1v0.5
	C517,106.6,516.6,107,516,107z M516,102.5c-0.6,0-1-0.4-1-1V101c0-0.6,0.4-1,1-1s1,0.4,1,1v0.5C517,102.1,516.6,102.5,516,102.5z
	 M516,98c-0.6,0-1-0.4-1-1v-0.5c0-0.6,0.4-1,1-1s1,0.4,1,1V97C517,97.6,516.6,98,516,98z M516,93.5c-0.6,0-1-0.4-1-1V92
	c0-0.6,0.4-1,1-1s1,0.4,1,1v0.5C517,93.1,516.6,93.5,516,93.5z"/>
<path class="st0" d="M515.5,324c-0.6,0-1-0.4-1-1v-0.5c0-0.6,0.4-1,1-1s1,0.4,1,1v0.5C516.5,323.6,516.1,324,515.5,324z
	 M515.5,319.5c-0.6,0-1-0.4-1-1V318c0-0.6,0.4-1,1-1s1,0.4,1,1v0.5C516.5,319.1,516.1,319.5,515.5,319.5z M515.5,315
	c-0.6,0-1-0.4-1-1v-0.5c0-0.6,0.4-1,1-1s1,0.4,1,1v0.5C516.5,314.6,516.1,315,515.5,315z M515.5,310.5c-0.6,0-1-0.4-1-1V309
	c0-0.6,0.4-1,1-1s1,0.4,1,1v0.5C516.5,310.1,516.1,310.5,515.5,310.5z M515.5,306c-0.6,0-1-0.4-1-1v-0.5c0-0.6,0.4-1,1-1s1,0.4,1,1
	v0.5C516.5,305.6,516.1,306,515.5,306z M515.5,301.5c-0.6,0-1-0.4-1-1V300c0-0.6,0.4-1,1-1s1,0.4,1,1v0.5
	C516.5,301.1,516.1,301.5,515.5,301.5z M515.5,297c-0.6,0-1-0.4-1-1v-0.5c0-0.6,0.4-1,1-1s1,0.4,1,1v0.5
	C516.5,296.6,516.1,297,515.5,297z M515.5,292.5c-0.6,0-1-0.4-1-1V291c0-0.6,0.4-1,1-1s1,0.4,1,1v0.5
	C516.5,292.1,516.1,292.5,515.5,292.5z M515.5,288c-0.6,0-1-0.4-1-1v-0.5c0-0.6,0.4-1,1-1s1,0.4,1,1v0.5
	C516.5,287.6,516.1,288,515.5,288z M515.5,283.5c-0.6,0-1-0.4-1-1V282c0-0.6,0.4-1,1-1s1,0.4,1,1v0.5
	C516.5,283.1,516.1,283.5,515.5,283.5z M515.5,279c-0.6,0-1-0.4-1-1v-0.5c0-0.6,0.4-1,1-1s1,0.4,1,1v0.5
	C516.5,278.6,516.1,279,515.5,279z M515.5,274.5c-0.6,0-1-0.4-1-1V273c0-0.6,0.4-1,1-1s1,0.4,1,1v0.5
	C516.5,274.1,516.1,274.5,515.5,274.5z M515.5,270c-0.6,0-1-0.4-1-1v-0.5c0-0.6,0.4-1,1-1s1,0.4,1,1v0.5
	C516.5,269.6,516.1,270,515.5,270z"/>
<path class="st0" d="M375.5,455.1c-0.6,0-1-0.4-1-1v-0.5c0-0.6,0.4-1,1-1s1,0.4,1,1v0.5C376.5,454.6,376.1,455.1,375.5,455.1z
	 M375.5,450.6c-0.6,0-1-0.4-1-1v-0.5c0-0.6,0.4-1,1-1s1,0.4,1,1v0.5C376.5,450.1,376.1,450.6,375.5,450.6z M375.5,446.1
	c-0.6,0-1-0.4-1-1v-0.5c0-0.6,0.4-1,1-1s1,0.4,1,1v0.5C376.5,445.6,376.1,446.1,375.5,446.1z M375.5,441.6c-0.6,0-1-0.4-1-1v-0.5
	c0-0.6,0.4-1,1-1s1,0.4,1,1v0.5C376.5,441.1,376.1,441.6,375.5,441.6z M378.7,439.3c-0.4,0-0.8-0.2-0.9-0.6
	c-0.2-0.5,0.1-1.1,0.6-1.3l0.5-0.2c0.5-0.2,1.1,0.1,1.3,0.6c0.2,0.5-0.1,1.1-0.6,1.3l-0.5,0.2C378.9,439.2,378.8,439.3,378.7,439.3z
	 M382.9,437.6c-0.4,0-0.8-0.2-0.9-0.6c-0.2-0.5,0.1-1.1,0.6-1.3l0.5-0.2c0.5-0.2,1.1,0.1,1.3,0.6c0.2,0.5-0.1,1.1-0.6,1.3l-0.5,0.2
	C383.1,437.6,383,437.6,382.9,437.6z M387.1,436c-0.4,0-0.8-0.2-0.9-0.6c-0.2-0.5,0.1-1.1,0.6-1.3l0.5-0.2c0.5-0.2,1.1,0.1,1.3,0.6
	c0.2,0.5-0.1,1.1-0.6,1.3l-0.5,0.2C387.3,435.9,387.2,436,387.1,436z M391.2,434.3c-0.4,0-0.8-0.2-0.9-0.6c-0.2-0.5,0.1-1.1,0.6-1.3
	l0.5-0.2c0.5-0.2,1.1,0.1,1.3,0.6c0.2,0.5-0.1,1.1-0.6,1.3l-0.5,0.2C391.5,434.3,391.4,434.3,391.2,434.3z M395.4,432.7
	c-0.4,0-0.8-0.2-0.9-0.6c-0.2-0.5,0.1-1.1,0.6-1.3l0.5-0.2c0.5-0.2,1.1,0.1,1.3,0.6c0.2,0.5-0.1,1.1-0.6,1.3l-0.5,0.2
	C395.7,432.6,395.6,432.7,395.4,432.7z M399.6,431c-0.4,0-0.8-0.2-0.9-0.6c-0.2-0.5,0.1-1.1,0.6-1.3l0.5-0.2
	c0.5-0.2,1.1,0.1,1.3,0.6c0.2,0.5-0.1,1.1-0.6,1.3L400,431C399.9,431,399.7,431,399.6,431z M403.8,429.4c-0.4,0-0.8-0.2-0.9-0.6
	c-0.2-0.5,0.1-1.1,0.6-1.3l0.5-0.2c0.5-0.2,1.1,0.1,1.3,0.6c0.2,0.5-0.1,1.1-0.6,1.3l-0.5,0.2C404.1,429.4,403.9,429.4,403.8,429.4z
	 M408,427.7c-0.4,0-0.8-0.2-0.9-0.6c-0.2-0.5,0.1-1.1,0.6-1.3l0.5-0.2c0.5-0.2,1.1,0.1,1.3,0.6c0.2,0.5-0.1,1.1-0.6,1.3l-0.5,0.2
	C408.2,427.7,408.1,427.7,408,427.7z M412.2,426.1c-0.4,0-0.8-0.2-0.9-0.6c-0.2-0.5,0-1.1,0.6-1.3l0.5-0.2c0.5-0.2,1.1,0,1.3,0.6
	s0,1.1-0.6,1.3l-0.5,0.2C412.4,426.1,412.3,426.1,412.2,426.1z M416.4,424.4c-0.4,0-0.8-0.2-0.9-0.6c-0.2-0.5,0-1.1,0.6-1.3l0.5-0.2
	c0.5-0.2,1.1,0,1.3,0.6s0,1.1-0.6,1.3l-0.5,0.2C416.6,424.4,416.5,424.4,416.4,424.4z M420.6,422.8c-0.4,0-0.8-0.2-0.9-0.6
	c-0.2-0.5,0-1.1,0.6-1.3l0.5-0.2c0.5-0.2,1.1,0,1.3,0.6s0,1.1-0.6,1.3l-0.5,0.2C420.8,422.8,420.7,422.8,420.6,422.8z M424.8,421.2
	c-0.4,0-0.8-0.2-0.9-0.6c-0.2-0.5,0.1-1.1,0.6-1.3l0.5-0.2c0.5-0.2,1.1,0.1,1.3,0.6c0.2,0.5-0.1,1.1-0.6,1.3l-0.5,0.2
	C425,421.1,424.9,421.2,424.8,421.2z M428.9,419.5c-0.4,0-0.8-0.2-0.9-0.6c-0.2-0.5,0.1-1.1,0.6-1.3l0.5-0.2
	c0.5-0.2,1.1,0.1,1.3,0.6c0.2,0.5-0.1,1.1-0.6,1.3l-0.5,0.2C429.2,419.5,429.1,419.5,428.9,419.5z M433.1,417.9
	c-0.4,0-0.8-0.2-0.9-0.6c-0.2-0.5,0.1-1.1,0.6-1.3l0.5-0.2c0.5-0.2,1.1,0.1,1.3,0.6c0.2,0.5-0.1,1.1-0.6,1.3l-0.5,0.2
	C433.4,417.8,433.2,417.9,433.1,417.9z M437.3,416.2c-0.4,0-0.8-0.2-0.9-0.6c-0.2-0.5,0.1-1.1,0.6-1.3l0.5-0.2
	c0.5-0.2,1.1,0.1,1.3,0.6c0.2,0.5-0.1,1.1-0.6,1.3l-0.5,0.2C437.6,416.2,437.4,416.2,437.3,416.2z M441.5,414.6
	c-0.4,0-0.8-0.2-0.9-0.6c-0.2-0.5,0.1-1.1,0.6-1.3l0.5-0.2c0.5-0.2,1.1,0.1,1.3,0.6c0.2,0.5-0.1,1.1-0.6,1.3l-0.5,0.2
	C441.8,414.5,441.6,414.6,441.5,414.6z M445.7,412.9c-0.4,0-0.8-0.2-0.9-0.6c-0.2-0.5,0.1-1.1,0.6-1.3l0.5-0.2
	c0.5-0.2,1.1,0.1,1.3,0.6c0.2,0.5-0.1,1.1-0.6,1.3l-0.5,0.2C445.9,412.9,445.8,412.9,445.7,412.9z M449.9,411.3
	c-0.4,0-0.8-0.2-0.9-0.6c-0.2-0.5,0.1-1.1,0.6-1.3l0.5-0.2c0.5-0.2,1.1,0.1,1.3,0.6c0.2,0.5-0.1,1.1-0.6,1.3l-0.5,0.2
	C450.1,411.3,450,411.3,449.9,411.3z M454.1,409.6c-0.4,0-0.8-0.2-0.9-0.6c-0.2-0.5,0.1-1.1,0.6-1.3l0.5-0.2
	c0.5-0.2,1.1,0.1,1.3,0.6c0.2,0.5-0.1,1.1-0.6,1.3l-0.5,0.2C454.3,409.6,454.2,409.6,454.1,409.6z M458.3,408
	c-0.4,0-0.8-0.2-0.9-0.6c-0.2-0.5,0.1-1.1,0.6-1.3l0.5-0.2c0.5-0.2,1.1,0.1,1.3,0.6c0.2,0.5-0.1,1.1-0.6,1.3l-0.5,0.2
	C458.5,408,458.4,408,458.3,408z M462.4,406.3c-0.4,0-0.8-0.2-0.9-0.6c-0.2-0.5,0.1-1.1,0.6-1.3l0.5-0.2c0.5-0.2,1.1,0.1,1.3,0.6
	c0.2,0.5-0.1,1.1-0.6,1.3l-0.5,0.2C462.7,406.3,462.6,406.3,462.4,406.3z M466.6,404.7c-0.4,0-0.8-0.2-0.9-0.6
	c-0.2-0.5,0.1-1.1,0.6-1.3l0.5-0.2c0.5-0.2,1.1,0.1,1.3,0.6c0.2,0.5-0.1,1.1-0.6,1.3l-0.5,0.2C466.9,404.7,466.8,404.7,466.6,404.7z
	 M470.8,403.1c-0.4,0-0.8-0.2-0.9-0.6c-0.2-0.5,0-1.1,0.6-1.3l0.5-0.2c0.5-0.2,1.1,0,1.3,0.6s0,1.1-0.6,1.3l-0.5,0.2
	C471.1,403,470.9,403.1,470.8,403.1z M475,401.4c-0.4,0-0.8-0.2-0.9-0.6c-0.2-0.5,0-1.1,0.6-1.3l0.5-0.2c0.5-0.2,1.1,0,1.3,0.6
	s0,1.1-0.6,1.3l-0.5,0.2C475.3,401.4,475.1,401.4,475,401.4z M479.2,399.8c-0.4,0-0.8-0.2-0.9-0.6c-0.2-0.5,0-1.1,0.6-1.3l0.5-0.2
	c0.5-0.2,1.1,0,1.3,0.6s0,1.1-0.6,1.3l-0.5,0.2C479.4,399.7,479.3,399.8,479.2,399.8z M483.4,398.1c-0.4,0-0.8-0.2-0.9-0.6
	c-0.2-0.5,0.1-1.1,0.6-1.3l0.5-0.2c0.5-0.2,1.1,0.1,1.3,0.6c0.2,0.5-0.1,1.1-0.6,1.3l-0.5,0.2C483.6,398.1,483.5,398.1,483.4,398.1z
	 M487.6,396.5c-0.4,0-0.8-0.2-0.9-0.6c-0.2-0.5,0.1-1.1,0.6-1.3l0.5-0.2c0.5-0.2,1.1,0.1,1.3,0.6c0.2,0.5-0.1,1.1-0.6,1.3l-0.5,0.2
	C487.8,396.4,487.7,396.5,487.6,396.5z M491.8,394.8c-0.4,0-0.8-0.2-0.9-0.6c-0.2-0.5,0.1-1.1,0.6-1.3l0.5-0.2
	c0.5-0.2,1.1,0.1,1.3,0.6s-0.1,1.1-0.6,1.3l-0.5,0.2C492,394.8,491.9,394.8,491.8,394.8z M496,393.2c-0.4,0-0.8-0.2-0.9-0.6
	c-0.2-0.5,0.1-1.1,0.6-1.3l0.5-0.2c0.5-0.2,1.1,0.1,1.3,0.6c0.2,0.5-0.1,1.1-0.6,1.3l-0.5,0.2C496.2,393.2,496.1,393.2,496,393.2z
	 M500.1,391.5c-0.4,0-0.8-0.2-0.9-0.6c-0.2-0.5,0.1-1.1,0.6-1.3l0.5-0.2c0.5-0.2,1.1,0.1,1.3,0.6c0.2,0.5-0.1,1.1-0.6,1.3l-0.5,0.2
	C500.4,391.5,500.3,391.5,500.1,391.5z M504.3,389.9c-0.4,0-0.8-0.2-0.9-0.6c-0.2-0.5,0.1-1.1,0.6-1.3l0.5-0.2
	c0.5-0.2,1.1,0.1,1.3,0.6c0.2,0.5-0.1,1.1-0.6,1.3l-0.5,0.2C504.6,389.9,504.5,389.9,504.3,389.9z M508.5,388.2
	c-0.4,0-0.8-0.2-0.9-0.6c-0.2-0.5,0.1-1.1,0.6-1.3l0.5-0.2c0.5-0.2,1.1,0.1,1.3,0.6c0.2,0.5-0.1,1.1-0.6,1.3l-0.5,0.2
	C508.8,388.2,508.6,388.2,508.5,388.2z M512.7,386.6c-0.4,0-0.8-0.2-0.9-0.6c-0.2-0.5,0.1-1.1,0.6-1.3l0.5-0.2
	c0.5-0.2,1.1,0.1,1.3,0.6c0.2,0.5-0.1,1.1-0.6,1.3l-0.5,0.2C513,386.6,512.8,386.6,512.7,386.6z M515.5,384c-0.6,0-1-0.4-1-1v-0.5
	c0-0.6,0.4-1,1-1s1,0.4,1,1v0.5C516.5,383.6,516.1,384,515.5,384z M515.5,379.5c-0.6,0-1-0.4-1-1V378c0-0.6,0.4-1,1-1s1,0.4,1,1v0.5
	C516.5,379.1,516.1,379.5,515.5,379.5z M515.5,375c-0.6,0-1-0.4-1-1v-0.5c0-0.6,0.4-1,1-1s1,0.4,1,1v0.5
	C516.5,374.6,516.1,375,515.5,375z M515.5,370.5c-0.6,0-1-0.4-1-1V369c0-0.6,0.4-1,1-1s1,0.4,1,1v0.5
	C516.5,370.1,516.1,370.5,515.5,370.5z M515.5,366c-0.6,0-1-0.4-1-1v-0.5c0-0.6,0.4-1,1-1s1,0.4,1,1v0.5
	C516.5,365.6,516.1,366,515.5,366z M515.5,361.5c-0.6,0-1-0.4-1-1V360c0-0.6,0.4-1,1-1s1,0.4,1,1v0.5
	C516.5,361.1,516.1,361.5,515.5,361.5z M515.5,357c-0.6,0-1-0.4-1-1v-0.5c0-0.6,0.4-1,1-1s1,0.4,1,1v0.5
	C516.5,356.6,516.1,357,515.5,357z"/>
<path class="st0" d="M654.5,459c-0.6,0-1-0.4-1-1v-0.5c0-0.6,0.4-1,1-1s1,0.4,1,1v0.5C655.5,458.5,655.1,459,654.5,459z
	 M470.5,458.5c-0.6,0-1-0.4-1-1V457c0-0.6,0.4-1,1-1s1,0.4,1,1v0.5C471.5,458.1,471.1,458.5,470.5,458.5z M654.5,454.5
	c-0.6,0-1-0.4-1-1V453c0-0.6,0.4-1,1-1s1,0.4,1,1v0.5C655.5,454,655.1,454.5,654.5,454.5z M470.5,454c-0.6,0-1-0.4-1-1v-0.5
	c0-0.6,0.4-1,1-1s1,0.4,1,1v0.5C471.5,453.6,471.1,454,470.5,454z M654.5,450c-0.6,0-1-0.4-1-1v-0.5c0-0.6,0.4-1,1-1s1,0.4,1,1v0.5
	C655.5,449.5,655.1,450,654.5,450z M470.5,449.5c-0.6,0-1-0.4-1-1V448c0-0.6,0.4-1,1-1s1,0.4,1,1v0.5
	C471.5,449.1,471.1,449.5,470.5,449.5z M654.5,445.5c-0.6,0-1-0.4-1-1V444c0-0.6,0.4-1,1-1s1,0.4,1,1v0.5
	C655.5,445,655.1,445.5,654.5,445.5z M470.5,445c-0.6,0-1-0.4-1-1v-0.5c0-0.6,0.4-1,1-1s1,0.4,1,1v0.5
	C471.5,444.6,471.1,445,470.5,445z M654.5,441c-0.6,0-1-0.4-1-1v-0.3c0-0.2,0-0.4,0-0.6c0.2-0.5,0.8-0.8,1.3-0.6l0.7,0.3v1.1
	C655.5,440.5,655.1,441,654.5,441z M470.5,440.5c-0.2,0-0.4-0.1-0.6-0.2c-0.4-0.4-0.5-1-0.1-1.4l0.3-0.4c0.3-0.4,1-0.5,1.4-0.1
	c0.4,0.4,0.5,1,0.1,1.4l-0.3,0.4C471.1,440.4,470.8,440.5,470.5,440.5z M650.7,439c-0.1,0-0.2,0-0.4-0.1l-0.5-0.2
	c-0.5-0.2-0.8-0.8-0.6-1.3s0.8-0.8,1.3-0.6l0.5,0.2c0.5,0.2,0.8,0.8,0.6,1.3C651.5,438.8,651.1,439,650.7,439z M646.6,437.4
	c-0.1,0-0.2,0-0.4-0.1l-0.5-0.2c-0.5-0.2-0.8-0.8-0.6-1.3c0.2-0.5,0.8-0.8,1.3-0.6l0.5,0.2c0.5,0.2,0.8,0.8,0.6,1.3
	C647.3,437.1,646.9,437.4,646.6,437.4z M473.3,437c-0.2,0-0.4-0.1-0.6-0.2c-0.4-0.3-0.5-1-0.1-1.4l0.3-0.4c0.3-0.4,1-0.5,1.4-0.1
	c0.4,0.3,0.5,1,0.1,1.4l-0.3,0.4C473.9,436.9,473.6,437,473.3,437z M642.4,435.7c-0.1,0-0.2,0-0.4-0.1l-0.5-0.2
	c-0.5-0.2-0.8-0.8-0.6-1.3c0.2-0.5,0.8-0.8,1.3-0.6l0.5,0.2c0.5,0.2,0.8,0.8,0.6,1.3C643.1,435.5,642.8,435.7,642.4,435.7z
	 M638.2,434c-0.1,0-0.2,0-0.4-0.1l-0.5-0.2c-0.5-0.2-0.8-0.8-0.6-1.3c0.2-0.5,0.8-0.8,1.3-0.6l0.5,0.2c0.5,0.2,0.8,0.8,0.6,1.3
	C639,433.8,638.6,434,638.2,434z M476.2,433.5c-0.2,0-0.4-0.1-0.6-0.2c-0.4-0.4-0.5-1-0.1-1.4l0.3-0.4c0.4-0.4,1-0.5,1.4-0.1
	c0.4,0.4,0.5,1,0.1,1.4l-0.3,0.4C476.8,433.4,476.5,433.5,476.2,433.5z M634,432.4c-0.1,0-0.2,0-0.4-0.1l-0.5-0.2
	c-0.5-0.2-0.8-0.8-0.6-1.3c0.2-0.5,0.8-0.8,1.3-0.6l0.5,0.2c0.5,0.2,0.8,0.8,0.6,1.3C634.8,432.1,634.4,432.4,634,432.4z
	 M629.8,430.7c-0.1,0-0.2,0-0.4-0.1l-0.5-0.2c-0.5-0.2-0.8-0.8-0.6-1.3s0.8-0.8,1.3-0.6l0.5,0.2c0.5,0.2,0.8,0.8,0.6,1.3
	C630.6,430.5,630.2,430.7,629.8,430.7z M479,430.1c-0.2,0-0.4-0.1-0.6-0.2c-0.4-0.4-0.5-1-0.1-1.4l0.3-0.4c0.4-0.4,1-0.5,1.4-0.1
	c0.4,0.4,0.5,1,0.1,1.4l-0.3,0.4C479.6,429.9,479.3,430.1,479,430.1z M625.6,429.1c-0.1,0-0.2,0-0.4-0.1l-0.5-0.2
	c-0.5-0.2-0.8-0.8-0.6-1.3s0.8-0.8,1.3-0.6l0.5,0.2c0.5,0.2,0.8,0.8,0.6,1.3C626.4,428.8,626,429.1,625.6,429.1z M621.4,427.4
	c-0.1,0-0.2,0-0.4-0.1l-0.5-0.2c-0.5-0.2-0.8-0.8-0.6-1.3c0.2-0.5,0.8-0.8,1.3-0.6l0.5,0.2c0.5,0.2,0.8,0.8,0.6,1.3
	C622.2,427.2,621.8,427.4,621.4,427.4z M481.9,426.6c-0.2,0-0.4-0.1-0.6-0.2c-0.4-0.4-0.5-1-0.1-1.4l0.3-0.4c0.4-0.4,1-0.5,1.4-0.1
	c0.4,0.4,0.5,1,0.1,1.4l-0.3,0.4C482.5,426.4,482.2,426.6,481.9,426.6z M617.3,425.8c-0.1,0-0.2,0-0.4-0.1l-0.5-0.2
	c-0.5-0.2-0.8-0.8-0.6-1.3c0.2-0.5,0.8-0.8,1.3-0.6l0.5,0.2c0.5,0.2,0.8,0.8,0.6,1.3C618,425.5,617.7,425.8,617.3,425.8z
	 M613.1,424.1c-0.1,0-0.2,0-0.4-0.1l-0.5-0.2c-0.5-0.2-0.8-0.8-0.6-1.3c0.2-0.5,0.8-0.8,1.3-0.6l0.5,0.2c0.5,0.2,0.8,0.8,0.6,1.3
	C613.8,423.9,613.5,424.1,613.1,424.1z M484.7,423.1c-0.2,0-0.4-0.1-0.6-0.2c-0.4-0.4-0.5-1-0.1-1.4l0.3-0.4c0.3-0.4,1-0.5,1.4-0.1
	c0.4,0.4,0.5,1,0.1,1.4l-0.3,0.4C485.3,423,485,423.1,484.7,423.1z M608.9,422.5c-0.1,0-0.2,0-0.4-0.1l-0.5-0.2
	c-0.5-0.2-0.8-0.8-0.6-1.3c0.2-0.5,0.8-0.8,1.3-0.6l0.5,0.2c0.5,0.2,0.8,0.8,0.6,1.3C609.7,422.2,609.3,422.5,608.9,422.5z
	 M604.7,420.8c-0.1,0-0.2,0-0.4-0.1l-0.5-0.2c-0.5-0.2-0.8-0.8-0.6-1.3c0.2-0.5,0.8-0.8,1.3-0.6l0.5,0.2c0.5,0.2,0.8,0.8,0.6,1.3
	C605.5,420.6,605.1,420.8,604.7,420.8z M487.6,419.6c-0.2,0-0.4-0.1-0.6-0.2c-0.4-0.3-0.5-1-0.1-1.4l0.3-0.4c0.3-0.4,1-0.5,1.4-0.1
	c0.4,0.3,0.5,1,0.1,1.4l-0.3,0.4C488.2,419.5,487.9,419.6,487.6,419.6z M600.5,419.1c-0.1,0-0.2,0-0.4-0.1l-0.5-0.2
	c-0.5-0.2-0.8-0.8-0.6-1.3c0.2-0.5,0.8-0.8,1.3-0.6l0.5,0.2c0.5,0.2,0.8,0.8,0.6,1.3C601.3,418.9,600.9,419.1,600.5,419.1z
	 M596.3,417.5c-0.1,0-0.2,0-0.4-0.1l-0.5-0.2c-0.5-0.2-0.8-0.8-0.6-1.3c0.2-0.5,0.8-0.8,1.3-0.6l0.5,0.2c0.5,0.2,0.8,0.8,0.6,1.3
	C597.1,417.2,596.7,417.5,596.3,417.5z M490.4,416.1c-0.2,0-0.4-0.1-0.6-0.2c-0.4-0.3-0.5-1-0.1-1.4l0.3-0.4c0.4-0.4,1-0.5,1.4-0.1
	c0.4,0.3,0.5,1,0.1,1.4l-0.3,0.4C491,416,490.7,416.1,490.4,416.1z M592.2,415.8c-0.1,0-0.2,0-0.4-0.1l-0.5-0.2
	c-0.5-0.2-0.8-0.8-0.6-1.3c0.2-0.5,0.8-0.8,1.3-0.6l0.5,0.2c0.5,0.2,0.8,0.8,0.6,1.3C592.9,415.6,592.6,415.8,592.2,415.8z
	 M588,414.2c-0.1,0-0.2,0-0.4-0.1l-0.5-0.2c-0.5-0.2-0.8-0.8-0.6-1.3c0.2-0.5,0.8-0.8,1.3-0.6l0.5,0.2c0.5,0.2,0.8,0.8,0.6,1.3
	C588.7,413.9,588.4,414.2,588,414.2z M493.3,412.6c-0.2,0-0.4-0.1-0.6-0.2c-0.4-0.3-0.5-1-0.1-1.4l0.3-0.4c0.4-0.4,1-0.5,1.4-0.1
	c0.4,0.3,0.5,1,0.1,1.4l-0.3,0.4C493.9,412.5,493.6,412.6,493.3,412.6z M583.8,412.5c-0.1,0-0.2,0-0.4-0.1l-0.5-0.2
	c-0.5-0.2-0.8-0.8-0.6-1.3c0.2-0.5,0.8-0.8,1.3-0.6l0.5,0.2c0.5,0.2,0.8,0.8,0.6,1.3C584.6,412.3,584.2,412.5,583.8,412.5z
	 M579.6,410.9c-0.1,0-0.2,0-0.4-0.1l-0.5-0.2c-0.5-0.2-0.8-0.8-0.6-1.3c0.2-0.5,0.8-0.8,1.3-0.6l0.5,0.2c0.5,0.2,0.8,0.8,0.6,1.3
	C580.4,410.6,580,410.9,579.6,410.9z M575.4,409.2c-0.1,0-0.2,0-0.4-0.1l-0.5-0.2c-0.5-0.2-0.8-0.8-0.6-1.3s0.8-0.8,1.3-0.6l0.5,0.2
	c0.5,0.2,0.8,0.8,0.6,1.3C576.2,409,575.8,409.2,575.4,409.2z M496.1,409.2c-0.2,0-0.4-0.1-0.6-0.2c-0.4-0.3-0.5-1-0.1-1.4l0.3-0.4
	c0.4-0.4,1-0.5,1.4-0.1c0.4,0.3,0.5,1,0.1,1.4l-0.3,0.4C496.7,409,496.4,409.2,496.1,409.2z M571.2,407.6c-0.1,0-0.2,0-0.4-0.1
	l-0.5-0.2c-0.5-0.2-0.8-0.8-0.6-1.3c0.2-0.5,0.8-0.8,1.3-0.6l0.5,0.2c0.5,0.2,0.8,0.8,0.6,1.3C572,407.3,571.6,407.6,571.2,407.6z
	 M567,405.9c-0.1,0-0.2,0-0.4-0.1l-0.5-0.2c-0.5-0.2-0.8-0.8-0.6-1.3c0.2-0.5,0.8-0.8,1.3-0.6l0.5,0.2c0.5,0.2,0.8,0.8,0.6,1.3
	C567.8,405.7,567.4,405.9,567,405.9z M499,405.7c-0.2,0-0.4-0.1-0.6-0.2c-0.4-0.3-0.5-1-0.1-1.4l0.3-0.4c0.4-0.4,1-0.5,1.4-0.1
	c0.4,0.3,0.5,1,0.1,1.4l-0.3,0.4C499.6,405.5,499.3,405.7,499,405.7z M562.9,404.2c-0.1,0-0.2,0-0.4-0.1L562,404
	c-0.5-0.2-0.8-0.8-0.6-1.3c0.2-0.5,0.8-0.8,1.3-0.6l0.5,0.2c0.5,0.2,0.8,0.8,0.6,1.3C563.6,404,563.3,404.2,562.9,404.2z
	 M558.7,402.6c-0.1,0-0.2,0-0.4-0.1l-0.5-0.2c-0.5-0.2-0.8-0.8-0.6-1.3s0.8-0.8,1.3-0.6l0.5,0.2c0.5,0.2,0.8,0.8,0.6,1.3
	C559.5,402.3,559.1,402.6,558.7,402.6z M501.8,402.2c-0.2,0-0.4-0.1-0.6-0.2c-0.4-0.3-0.5-1-0.1-1.4l0.3-0.4c0.3-0.4,1-0.5,1.4-0.1
	c0.4,0.3,0.5,1,0.1,1.4l-0.3,0.4C502.4,402.1,502.1,402.2,501.8,402.2z M554.5,400.9c-0.1,0-0.2,0-0.4-0.1l-0.5-0.2
	c-0.5-0.2-0.8-0.8-0.6-1.3s0.8-0.8,1.3-0.6l0.5,0.2c0.5,0.2,0.8,0.8,0.6,1.3C555.3,400.7,554.9,400.9,554.5,400.9z M550.3,399.3
	c-0.1,0-0.2,0-0.4-0.1l-0.5-0.2c-0.5-0.2-0.8-0.8-0.6-1.3c0.2-0.5,0.8-0.8,1.3-0.6l0.5,0.2c0.5,0.2,0.8,0.8,0.6,1.3
	C551.1,399,550.7,399.3,550.3,399.3z M504.7,398.7c-0.2,0-0.4-0.1-0.6-0.2c-0.4-0.4-0.5-1-0.1-1.4l0.3-0.4c0.3-0.4,1-0.5,1.4-0.1
	c0.4,0.4,0.5,1,0.1,1.4l-0.3,0.4C505.3,398.6,505,398.7,504.7,398.7z M546.1,397.6c-0.1,0-0.2,0-0.4-0.1l-0.5-0.2
	c-0.5-0.2-0.8-0.8-0.6-1.3c0.2-0.5,0.8-0.8,1.3-0.6l0.5,0.2c0.5,0.2,0.8,0.8,0.6,1.3C546.9,397.4,546.5,397.6,546.1,397.6z
	 M541.9,396c-0.1,0-0.2,0-0.4-0.1l-0.5-0.2c-0.5-0.2-0.8-0.8-0.6-1.3c0.2-0.5,0.8-0.8,1.3-0.6l0.5,0.2c0.5,0.2,0.8,0.8,0.6,1.3
	C542.7,395.7,542.3,396,541.9,396z M507.5,395.2c-0.2,0-0.4-0.1-0.6-0.2c-0.4-0.4-0.5-1-0.1-1.4l0.3-0.4c0.3-0.4,1-0.5,1.4-0.1
	c0.4,0.4,0.5,1,0.1,1.4l-0.3,0.4C508.1,395.1,507.8,395.2,507.5,395.2z M537.8,394.3c-0.1,0-0.2,0-0.4-0.1l-0.5-0.2
	c-0.5-0.2-0.8-0.8-0.6-1.3s0.8-0.8,1.3-0.6l0.5,0.2c0.5,0.2,0.8,0.8,0.6,1.3C538.5,394.1,538.2,394.3,537.8,394.3z M533.6,392.7
	c-0.1,0-0.2,0-0.4-0.1l-0.5-0.2c-0.5-0.2-0.8-0.8-0.6-1.3s0.8-0.8,1.3-0.6l0.5,0.2c0.5,0.2,0.8,0.8,0.6,1.3
	C534.3,392.4,534,392.7,533.6,392.7z M510.4,391.7c-0.2,0-0.4-0.1-0.6-0.2c-0.4-0.4-0.5-1-0.1-1.4l0.3-0.4c0.4-0.4,1-0.5,1.4-0.1
	c0.4,0.4,0.5,1,0.1,1.4l-0.3,0.4C511,391.6,510.7,391.7,510.4,391.7z M529.4,391c-0.1,0-0.2,0-0.4-0.1l-0.5-0.2
	c-0.5-0.2-0.8-0.8-0.6-1.3c0.2-0.5,0.8-0.8,1.3-0.6l0.5,0.2c0.5,0.2,0.8,0.8,0.6,1.3C530.2,390.8,529.8,391,529.4,391z M525.2,389.3
	c-0.1,0-0.2,0-0.4-0.1l-0.5-0.2c-0.5-0.2-0.8-0.8-0.6-1.3s0.8-0.8,1.3-0.6l0.5,0.2c0.5,0.2,0.8,0.8,0.6,1.3
	C526,389.1,525.6,389.3,525.2,389.3z M513.2,388.3c-0.2,0-0.4-0.1-0.6-0.2c-0.4-0.4-0.5-1-0.1-1.4l0.3-0.4c0.4-0.4,1-0.5,1.4-0.1
	c0.4,0.4,0.5,1,0.1,1.4l-0.3,0.4C513.8,388.1,513.5,388.3,513.2,388.3z M521,387.7c-0.1,0-0.2,0-0.4-0.1l-0.5-0.2
	c-0.5-0.2-0.8-0.8-0.6-1.3c0.2-0.5,0.8-0.8,1.3-0.6l0.5,0.2c0.5,0.2,0.8,0.8,0.6,1.3C521.8,387.4,521.4,387.7,521,387.7z M516.8,386
	c-0.1,0-0.2,0-0.4-0.1l-0.5-0.2c-0.5-0.2-0.8-0.8-0.6-1.3c0.2-0.5,0.8-0.8,1.3-0.6l0.5,0.2c0.5,0.2,0.8,0.8,0.6,1.3
	C517.6,385.8,517.2,386,516.8,386z"/>
<path class="st0" d="M375.5,557c-0.6,0-1-0.4-1-1v-0.5c0-0.6,0.4-1,1-1s1,0.4,1,1v0.5C376.5,556.6,376.1,557,375.5,557z
	 M375.5,552.5c-0.6,0-1-0.4-1-1V551c0-0.6,0.4-1,1-1s1,0.4,1,1v0.5C376.5,552.1,376.1,552.5,375.5,552.5z M375.5,548
	c-0.6,0-1-0.4-1-1v-0.5c0-0.6,0.4-1,1-1s1,0.4,1,1v0.5C376.5,547.6,376.1,548,375.5,548z M375.5,543.5c-0.6,0-1-0.4-1-1V542
	c0-0.6,0.4-1,1-1s1,0.4,1,1v0.5C376.5,543.1,376.1,543.5,375.5,543.5z M375.5,539c-0.6,0-1-0.4-1-1v-0.5c0-0.6,0.4-1,1-1s1,0.4,1,1
	v0.5C376.5,538.6,376.1,539,375.5,539z M375.5,534.5c-0.6,0-1-0.4-1-1V533c0-0.6,0.4-1,1-1s1,0.4,1,1v0.5
	C376.5,534.1,376.1,534.5,375.5,534.5z M375.5,530c-0.6,0-1-0.4-1-1v-0.5c0-0.6,0.4-1,1-1s1,0.4,1,1v0.5
	C376.5,529.6,376.1,530,375.5,530z M375.5,525.5c-0.6,0-1-0.4-1-1V524c0-0.6,0.4-1,1-1s1,0.4,1,1v0.5
	C376.5,525.1,376.1,525.5,375.5,525.5z M375.5,521c-0.6,0-1-0.4-1-1v-0.5c0-0.6,0.4-1,1-1s1,0.4,1,1v0.5
	C376.5,520.6,376.1,521,375.5,521z M375.5,516.5c-0.6,0-1-0.4-1-1V515c0-0.6,0.4-1,1-1s1,0.4,1,1v0.5
	C376.5,516.1,376.1,516.5,375.5,516.5z M375.5,512c-0.6,0-1-0.4-1-1v-0.5c0-0.6,0.4-1,1-1s1,0.4,1,1v0.5
	C376.5,511.6,376.1,512,375.5,512z M375.5,507.5c-0.6,0-1-0.4-1-1V506c0-0.6,0.4-1,1-1s1,0.4,1,1v0.5
	C376.5,507.1,376.1,507.5,375.5,507.5z M375.5,503c-0.6,0-1-0.4-1-1v-0.5c0-0.6,0.4-1,1-1s1,0.4,1,1v0.5
	C376.5,502.6,376.1,503,375.5,503z"/>
<path class="st0" d="M375.5,638.1c-0.6,0-1-0.4-1-1v-0.5c0-0.6,0.4-1,1-1s1,0.4,1,1v0.5C376.5,637.7,376.1,638.1,375.5,638.1z
	 M375.5,633.6c-0.6,0-1-0.4-1-1v-0.5c0-0.6,0.4-1,1-1s1,0.4,1,1v0.5C376.5,633.2,376.1,633.6,375.5,633.6z M375.5,629.1
	c-0.6,0-1-0.4-1-1v-0.5c0-0.6,0.4-1,1-1s1,0.4,1,1v0.5C376.5,628.7,376.1,629.1,375.5,629.1z M375.5,624.6c-0.6,0-1-0.4-1-1v-0.5
	c0-0.6,0.4-1,1-1s1,0.4,1,1v0.5C376.5,624.2,376.1,624.6,375.5,624.6z M378.8,622.8c-0.5,0-0.9-0.3-1-0.8c-0.1-0.5,0.2-1.1,0.8-1.2
	l0.5-0.1c0.5-0.1,1.1,0.2,1.2,0.8c0.1,0.5-0.2,1.1-0.8,1.2l-0.5,0.1C379,622.8,378.9,622.8,378.8,622.8z M383.2,621.8
	c-0.5,0-0.9-0.3-1-0.8c-0.1-0.5,0.2-1.1,0.8-1.2l0.5-0.1c0.5-0.1,1.1,0.2,1.2,0.8c0.1,0.5-0.2,1.1-0.8,1.2l-0.5,0.1
	C383.3,621.8,383.3,621.8,383.2,621.8z M387.6,620.8c-0.5,0-0.9-0.3-1-0.8c-0.1-0.5,0.2-1.1,0.8-1.2l0.5-0.1
	c0.5-0.1,1.1,0.2,1.2,0.8c0.1,0.5-0.2,1.1-0.8,1.2l-0.5,0.1C387.7,620.8,387.7,620.8,387.6,620.8z M392,619.8c-0.5,0-0.9-0.3-1-0.8
	c-0.1-0.5,0.2-1.1,0.8-1.2l0.5-0.1c0.5-0.1,1.1,0.2,1.2,0.8c0.1,0.5-0.2,1.1-0.8,1.2l-0.5,0.1C392.1,619.8,392.1,619.8,392,619.8z
	 M396.4,618.9c-0.5,0-0.9-0.3-1-0.8c-0.1-0.5,0.2-1.1,0.8-1.2l0.5-0.1c0.5-0.1,1.1,0.2,1.2,0.8c0.1,0.5-0.2,1.1-0.8,1.2l-0.5,0.1
	C396.5,618.9,396.5,618.9,396.4,618.9z M400.8,617.9c-0.5,0-0.9-0.3-1-0.8c-0.1-0.5,0.2-1.1,0.8-1.2l0.5-0.1
	c0.5-0.1,1.1,0.2,1.2,0.8c0.1,0.5-0.2,1.1-0.8,1.2l-0.5,0.1C400.9,617.9,400.8,617.9,400.8,617.9z M405.2,616.9
	c-0.5,0-0.9-0.3-1-0.8c-0.1-0.5,0.2-1.1,0.8-1.2l0.5-0.1c0.5-0.1,1.1,0.2,1.2,0.8c0.1,0.5-0.2,1.1-0.8,1.2l-0.5,0.1
	C405.3,616.9,405.2,616.9,405.2,616.9z M409.6,616c-0.5,0-0.9-0.3-1-0.8c-0.1-0.5,0.2-1.1,0.8-1.2l0.5-0.1c0.5-0.1,1.1,0.2,1.2,0.8
	c0.1,0.5-0.2,1.1-0.8,1.2l-0.5,0.1C409.7,615.9,409.6,616,409.6,616z M414,615c-0.5,0-0.9-0.3-1-0.8c-0.1-0.5,0.2-1.1,0.8-1.2
	l0.5-0.1c0.5-0.1,1.1,0.2,1.2,0.8c0.1,0.5-0.2,1.1-0.8,1.2l-0.5,0.1C414.1,615,414,615,414,615z M418.4,614c-0.5,0-0.9-0.3-1-0.8
	c-0.1-0.5,0.2-1.1,0.8-1.2l0.5-0.1c0.5-0.1,1.1,0.2,1.2,0.8s-0.2,1.1-0.8,1.2l-0.5,0.1C418.5,614,418.4,614,418.4,614z M422.7,613
	c-0.5,0-0.9-0.3-1-0.8c-0.1-0.5,0.2-1.1,0.8-1.2l0.5-0.1c0.5-0.1,1.1,0.2,1.2,0.8c0.1,0.5-0.2,1.1-0.8,1.2L423,613
	C422.9,613,422.8,613,422.7,613z M427.1,612.1c-0.5,0-0.9-0.3-1-0.8c-0.1-0.5,0.2-1.1,0.8-1.2l0.5-0.1c0.5-0.1,1.1,0.2,1.2,0.8
	s-0.2,1.1-0.8,1.2l-0.5,0.1C427.3,612.1,427.2,612.1,427.1,612.1z M431.5,611.1c-0.5,0-0.9-0.3-1-0.8c-0.1-0.5,0.2-1.1,0.8-1.2
	l0.5-0.1c0.5-0.1,1.1,0.2,1.2,0.8s-0.2,1.1-0.8,1.2l-0.5,0.1C431.7,611.1,431.6,611.1,431.5,611.1z M435.9,610.1
	c-0.5,0-0.9-0.3-1-0.8c-0.1-0.5,0.2-1.1,0.8-1.2l0.5-0.1c0.5-0.1,1.1,0.2,1.2,0.8c0.1,0.5-0.2,1.1-0.8,1.2l-0.5,0.1
	C436.1,610.1,436,610.1,435.9,610.1z M440.3,609.1c-0.5,0-0.9-0.3-1-0.8c-0.1-0.5,0.2-1.1,0.8-1.2l0.5-0.1c0.5-0.1,1.1,0.2,1.2,0.8
	s-0.2,1.1-0.8,1.2l-0.5,0.1C440.5,609.1,440.4,609.1,440.3,609.1z M444.7,608.2c-0.5,0-0.9-0.3-1-0.8c-0.1-0.5,0.2-1.1,0.8-1.2
	l0.5-0.1c0.5-0.1,1.1,0.2,1.2,0.8s-0.2,1.1-0.8,1.2l-0.5,0.1C444.9,608.2,444.8,608.2,444.7,608.2z M449.1,607.2
	c-0.5,0-0.9-0.3-1-0.8c-0.1-0.5,0.2-1.1,0.8-1.2l0.5-0.1c0.5-0.1,1.1,0.2,1.2,0.8c0.1,0.5-0.2,1.1-0.8,1.2l-0.5,0.1
	C449.3,607.2,449.2,607.2,449.1,607.2z M453.5,606.2c-0.5,0-0.9-0.3-1-0.8c-0.1-0.5,0.2-1.1,0.8-1.2l0.5-0.1
	c0.5-0.1,1.1,0.2,1.2,0.8c0.1,0.5-0.2,1.1-0.8,1.2l-0.5,0.1C453.6,606.2,453.6,606.2,453.5,606.2z M457.9,605.3
	c-0.5,0-0.9-0.3-1-0.8c-0.1-0.5,0.2-1.1,0.8-1.2l0.5-0.1c0.5-0.1,1.1,0.2,1.2,0.8s-0.2,1.1-0.8,1.2l-0.5,0.1
	C458,605.2,458,605.3,457.9,605.3z M462.3,604.3c-0.5,0-0.9-0.3-1-0.8c-0.1-0.5,0.2-1.1,0.8-1.2l0.5-0.1c0.5-0.1,1.1,0.2,1.2,0.8
	c0.1,0.5-0.2,1.1-0.8,1.2l-0.5,0.1C462.4,604.3,462.4,604.3,462.3,604.3z M466.7,603.3c-0.5,0-0.9-0.3-1-0.8
	c-0.1-0.5,0.2-1.1,0.8-1.2l0.5-0.1c0.5-0.1,1.1,0.2,1.2,0.8c0.1,0.5-0.2,1.1-0.8,1.2l-0.5,0.1C466.8,603.3,466.8,603.3,466.7,603.3z
	 M471.1,602.3c-0.5,0-0.9-0.3-1-0.8c-0.1-0.5,0.2-1.1,0.8-1.2l0.5-0.1c0.5-0.1,1.1,0.2,1.2,0.8s-0.2,1.1-0.8,1.2l-0.5,0.1
	C471.2,602.3,471.1,602.3,471.1,602.3z M475.5,601.4c-0.5,0-0.9-0.3-1-0.8c-0.1-0.5,0.2-1.1,0.8-1.2l0.5-0.1
	c0.5-0.1,1.1,0.2,1.2,0.8s-0.2,1.1-0.8,1.2l-0.5,0.1C475.6,601.4,475.5,601.4,475.5,601.4z M479.9,600.4c-0.5,0-0.9-0.3-1-0.8
	c-0.1-0.5,0.2-1.1,0.8-1.2l0.5-0.1c0.5-0.1,1.1,0.2,1.2,0.8c0.1,0.5-0.2,1.1-0.8,1.2l-0.5,0.1C480,600.4,479.9,600.4,479.9,600.4z
	 M484.3,599.4c-0.5,0-0.9-0.3-1-0.8c-0.1-0.5,0.2-1.1,0.8-1.2l0.5-0.1c0.5-0.1,1.1,0.2,1.2,0.8s-0.2,1.1-0.8,1.2l-0.5,0.1
	C484.4,599.4,484.3,599.4,484.3,599.4z M488.6,598.4c-0.5,0-0.9-0.3-1-0.8c-0.1-0.5,0.2-1.1,0.8-1.2l0.5-0.1
	c0.5-0.1,1.1,0.2,1.2,0.8s-0.2,1.1-0.8,1.2l-0.5,0.1C488.8,598.4,488.7,598.4,488.6,598.4z M493,597.5c-0.5,0-0.9-0.3-1-0.8
	c-0.1-0.5,0.2-1.1,0.8-1.2l0.5-0.1c0.5-0.1,1.1,0.2,1.2,0.8c0.1,0.5-0.2,1.1-0.8,1.2l-0.5,0.1C493.2,597.5,493.1,597.5,493,597.5z
	 M497.4,596.5c-0.5,0-0.9-0.3-1-0.8c-0.1-0.5,0.2-1.1,0.8-1.2l0.5-0.1c0.5-0.1,1.1,0.2,1.2,0.8s-0.2,1.1-0.8,1.2l-0.5,0.1
	C497.6,596.5,497.5,596.5,497.4,596.5z M501.8,595.5c-0.5,0-0.9-0.3-1-0.8c-0.1-0.5,0.2-1.1,0.8-1.2l0.5-0.1
	c0.5-0.1,1.1,0.2,1.2,0.8s-0.2,1.1-0.8,1.2l-0.5,0.1C502,595.5,501.9,595.5,501.8,595.5z M506.2,594.6c-0.5,0-0.9-0.3-1-0.8
	c-0.1-0.5,0.2-1.1,0.8-1.2l0.5-0.1c0.5-0.1,1.1,0.2,1.2,0.8c0.1,0.5-0.2,1.1-0.8,1.2l-0.5,0.1C506.4,594.5,506.3,594.6,506.2,594.6z
	 M510.6,593.6c-0.5,0-0.9-0.3-1-0.8c-0.1-0.5,0.2-1.1,0.8-1.2l0.5-0.1c0.5-0.1,1.1,0.2,1.2,0.8c0.1,0.5-0.2,1.1-0.8,1.2l-0.5,0.1
	C510.8,593.6,510.7,593.6,510.6,593.6z M515,592.6c-0.5,0-0.9-0.3-1-0.8c-0.1-0.5,0.2-1.1,0.8-1.2l0.5-0.1c0.5-0.1,1.1,0.2,1.2,0.8
	c0.1,0.5-0.2,1.1-0.8,1.2l-0.5,0.1C515.2,592.6,515.1,592.6,515,592.6z M515.5,588.5c-0.6,0-1-0.4-1-1V587c0-0.6,0.4-1,1-1
	s1,0.4,1,1v0.5C516.5,588.1,516.1,588.5,515.5,588.5z M515.5,584c-0.6,0-1-0.4-1-1v-0.5c0-0.6,0.4-1,1-1s1,0.4,1,1v0.5
	C516.5,583.6,516.1,584,515.5,584z M515.5,579.5c-0.6,0-1-0.4-1-1V578c0-0.6,0.4-1,1-1s1,0.4,1,1v0.5
	C516.5,579.1,516.1,579.5,515.5,579.5z M515.5,575c-0.6,0-1-0.4-1-1v-0.5c0-0.6,0.4-1,1-1s1,0.4,1,1v0.5
	C516.5,574.6,516.1,575,515.5,575z M515.5,570.5c-0.6,0-1-0.4-1-1V569c0-0.6,0.4-1,1-1s1,0.4,1,1v0.5
	C516.5,570.1,516.1,570.5,515.5,570.5z M515.5,566c-0.6,0-1-0.4-1-1v-0.5c0-0.6,0.4-1,1-1s1,0.4,1,1v0.5
	C516.5,565.6,516.1,566,515.5,566z M515.5,561.5c-0.6,0-1-0.4-1-1V560c0-0.6,0.4-1,1-1s1,0.4,1,1v0.5
	C516.5,561.1,516.1,561.5,515.5,561.5z M515.5,557c-0.6,0-1-0.4-1-1v-0.5c0-0.6,0.4-1,1-1s1,0.4,1,1v0.5
	C516.5,556.6,516.1,557,515.5,557z M515.5,552.5c-0.6,0-1-0.4-1-1V551c0-0.6,0.4-1,1-1s1,0.4,1,1v0.5
	C516.5,552.1,516.1,552.5,515.5,552.5z M515.5,548c-0.6,0-1-0.4-1-1v-0.5c0-0.6,0.4-1,1-1s1,0.4,1,1v0.5
	C516.5,547.6,516.1,548,515.5,548z M515.5,543.5c-0.6,0-1-0.4-1-1V542c0-0.6,0.4-1,1-1s1,0.4,1,1v0.5
	C516.5,543.1,516.1,543.5,515.5,543.5z M515.5,539c-0.6,0-1-0.4-1-1v-0.5c0-0.6,0.4-1,1-1s1,0.4,1,1v0.5
	C516.5,538.6,516.1,539,515.5,539z M515.5,534.5c-0.6,0-1-0.4-1-1V533c0-0.6,0.4-1,1-1s1,0.4,1,1v0.5
	C516.5,534.1,516.1,534.5,515.5,534.5z M515.5,530c-0.6,0-1-0.4-1-1v-0.5c0-0.6,0.4-1,1-1s1,0.4,1,1v0.5
	C516.5,529.6,516.1,530,515.5,530z M515.5,525.5c-0.6,0-1-0.4-1-1V524c0-0.6,0.4-1,1-1s1,0.4,1,1v0.5
	C516.5,525.1,516.1,525.5,515.5,525.5z M515.5,521c-0.6,0-1-0.4-1-1v-0.5c0-0.6,0.4-1,1-1s1,0.4,1,1v0.5
	C516.5,520.6,516.1,521,515.5,521z M515.5,516.5c-0.6,0-1-0.4-1-1V515c0-0.6,0.4-1,1-1s1,0.4,1,1v0.5
	C516.5,516.1,516.1,516.5,515.5,516.5z M515.5,512c-0.6,0-1-0.4-1-1v-0.5c0-0.6,0.4-1,1-1s1,0.4,1,1v0.5
	C516.5,511.6,516.1,512,515.5,512z M515.5,507.5c-0.6,0-1-0.4-1-1V506c0-0.6,0.4-1,1-1s1,0.4,1,1v0.5
	C516.5,507.1,516.1,507.5,515.5,507.5z M515.5,503c-0.6,0-1-0.4-1-1v-0.5c0-0.6,0.4-1,1-1s1,0.4,1,1v0.5
	C516.5,502.6,516.1,503,515.5,503z M515.5,498.5c-0.6,0-1-0.4-1-1V497c0-0.6,0.4-1,1-1s1,0.4,1,1v0.5
	C516.5,498.1,516.1,498.5,515.5,498.5z M515.5,494c-0.6,0-1-0.4-1-1v-0.5c0-0.6,0.4-1,1-1s1,0.4,1,1v0.5
	C516.5,493.6,516.1,494,515.5,494z M515.5,489.5c-0.6,0-1-0.4-1-1V488c0-0.6,0.4-1,1-1s1,0.4,1,1v0.5
	C516.5,489.1,516.1,489.5,515.5,489.5z M515.5,485c-0.6,0-1-0.4-1-1v-0.5c0-0.6,0.4-1,1-1s1,0.4,1,1v0.5
	C516.5,484.6,516.1,485,515.5,485z M515.5,480.5c-0.6,0-1-0.4-1-1V479c0-0.6,0.4-1,1-1s1,0.4,1,1v0.5
	C516.5,480.1,516.1,480.5,515.5,480.5z M515.5,476c-0.6,0-1-0.4-1-1v-0.5c0-0.6,0.4-1,1-1s1,0.4,1,1v0.5
	C516.5,475.6,516.1,476,515.5,476z M515.5,471.5c-0.6,0-1-0.4-1-1V470c0-0.6,0.4-1,1-1s1,0.4,1,1v0.5
	C516.5,471.1,516.1,471.5,515.5,471.5z M515.5,467c-0.6,0-1-0.4-1-1v-0.5c0-0.6,0.4-1,1-1s1,0.4,1,1v0.5
	C516.5,466.6,516.1,467,515.5,467z M515.5,462.5c-0.6,0-1-0.4-1-1V461c0-0.6,0.4-1,1-1s1,0.4,1,1v0.5
	C516.5,462.1,516.1,462.5,515.5,462.5z M515.5,458c-0.6,0-1-0.4-1-1v-0.5c0-0.6,0.4-1,1-1s1,0.4,1,1v0.5
	C516.5,457.6,516.1,458,515.5,458z M515.5,453.5c-0.6,0-1-0.4-1-1V452c0-0.6,0.4-1,1-1s1,0.4,1,1v0.5
	C516.5,453.1,516.1,453.5,515.5,453.5z M515.5,449c-0.6,0-1-0.4-1-1v-0.5c0-0.6,0.4-1,1-1s1,0.4,1,1v0.5
	C516.5,448.6,516.1,449,515.5,449z M515.5,444.5c-0.6,0-1-0.4-1-1V443c0-0.6,0.4-1,1-1s1,0.4,1,1v0.5
	C516.5,444.1,516.1,444.5,515.5,444.5z M515.5,440c-0.6,0-1-0.4-1-1v-0.5c0-0.6,0.4-1,1-1s1,0.4,1,1v0.5
	C516.5,439.6,516.1,440,515.5,440z M515.5,435.5c-0.6,0-1-0.4-1-1V434c0-0.6,0.4-1,1-1s1,0.4,1,1v0.5
	C516.5,435.1,516.1,435.5,515.5,435.5z M515.5,431c-0.6,0-1-0.4-1-1v-0.5c0-0.6,0.4-1,1-1s1,0.4,1,1v0.5
	C516.5,430.6,516.1,431,515.5,431z M515.5,426.5c-0.6,0-1-0.4-1-1V425c0-0.6,0.4-1,1-1s1,0.4,1,1v0.5
	C516.5,426.1,516.1,426.5,515.5,426.5z M515.5,422c-0.6,0-1-0.4-1-1v-0.5c0-0.6,0.4-1,1-1s1,0.4,1,1v0.5
	C516.5,421.6,516.1,422,515.5,422z M515.5,417.5c-0.6,0-1-0.4-1-1V416c0-0.6,0.4-1,1-1s1,0.4,1,1v0.5
	C516.5,417.1,516.1,417.5,515.5,417.5z M515.5,413c-0.6,0-1-0.4-1-1v-0.5c0-0.6,0.4-1,1-1s1,0.4,1,1v0.5
	C516.5,412.6,516.1,413,515.5,413z M515.5,408.5c-0.6,0-1-0.4-1-1V407c0-0.6,0.4-1,1-1s1,0.4,1,1v0.5
	C516.5,408.1,516.1,408.5,515.5,408.5z M515.5,404c-0.6,0-1-0.4-1-1v-0.5c0-0.6,0.4-1,1-1s1,0.4,1,1v0.5
	C516.5,403.6,516.1,404,515.5,404z M515.5,399.5c-0.6,0-1-0.4-1-1V398c0-0.6,0.4-1,1-1s1,0.4,1,1v0.5
	C516.5,399.1,516.1,399.5,515.5,399.5z M515.5,395c-0.6,0-1-0.4-1-1v-0.5c0-0.6,0.4-1,1-1s1,0.4,1,1v0.5
	C516.5,394.6,516.1,395,515.5,395z M515.5,390.5c-0.6,0-1-0.4-1-1V389c0-0.6,0.4-1,1-1s1,0.4,1,1v0.5
	C516.5,390.1,516.1,390.5,515.5,390.5z M515.5,386c-0.6,0-1-0.4-1-1v-0.5c0-0.6,0.4-1,1-1s1,0.4,1,1v0.5
	C516.5,385.6,516.1,386,515.5,386z"/>
<path class="st0" d="M654.5,639.5c-0.6,0-1-0.4-1-1V638c0-0.6,0.4-1,1-1s1,0.4,1,1v0.5C655.5,639.1,655.1,639.5,654.5,639.5z
	 M470.5,635.9c-0.6,0-1-0.4-1-1v-0.5c0-0.6,0.4-1,1-1s1,0.4,1,1v0.5C471.5,635.5,471.1,635.9,470.5,635.9z M654.5,635
	c-0.6,0-1-0.4-1-1v-0.5c0-0.6,0.4-1,1-1s1,0.4,1,1v0.5C655.5,634.6,655.1,635,654.5,635z M470.5,631.4c-0.6,0-1-0.4-1-1v-0.5
	c0-0.6,0.4-1,1-1s1,0.4,1,1v0.5C471.5,631,471.1,631.4,470.5,631.4z M654.5,630.5c-0.6,0-1-0.4-1-1V629c0-0.6,0.4-1,1-1s1,0.4,1,1
	v0.5C655.5,630.1,655.1,630.5,654.5,630.5z M470.5,626.9c-0.6,0-1-0.4-1-1v-0.5c0-0.6,0.4-1,1-1s1,0.4,1,1v0.5
	C471.5,626.5,471.1,626.9,470.5,626.9z M654.5,626c-0.6,0-1-0.4-1-1v-0.5c0-0.6,0.4-1,1-1s1,0.4,1,1v0.5
	C655.5,625.6,655.1,626,654.5,626z M652.5,623.1c-0.1,0-0.1,0-0.2,0l-0.5-0.1c-0.5-0.1-0.9-0.7-0.8-1.2c0.1-0.5,0.7-0.9,1.2-0.8
	l0.5,0.1c0.5,0.1,0.9,0.7,0.8,1.2C653.4,622.7,653,623.1,652.5,623.1z M471.4,622.9c-0.3,0-0.6-0.2-0.8-0.4
	c-0.3-0.5-0.2-1.1,0.3-1.4l0.4-0.3c0.5-0.3,1.1-0.2,1.4,0.3c0.3,0.5,0.2,1.1-0.3,1.4l-0.4,0.3C471.8,622.8,471.6,622.9,471.4,622.9z
	 M648.2,622.1c-0.1,0-0.1,0-0.2,0l-0.5-0.1c-0.5-0.1-0.9-0.7-0.8-1.2c0.1-0.5,0.7-0.9,1.2-0.8l0.5,0.1c0.5,0.1,0.9,0.7,0.8,1.2
	C649,621.8,648.6,622.1,648.2,622.1z M643.8,621.1c-0.1,0-0.1,0-0.2,0l-0.5-0.1c-0.5-0.1-0.9-0.7-0.8-1.2c0.1-0.5,0.7-0.9,1.2-0.8
	l0.5,0.1c0.5,0.1,0.9,0.7,0.8,1.2C644.6,620.8,644.2,621.1,643.8,621.1z M475.1,620.3c-0.3,0-0.6-0.2-0.8-0.4
	c-0.3-0.5-0.2-1.1,0.3-1.4l0.4-0.3c0.5-0.3,1.1-0.2,1.4,0.3c0.3,0.5,0.2,1.1-0.3,1.4l-0.4,0.3C475.5,620.3,475.3,620.3,475.1,620.3z
	 M639.4,620.1c-0.1,0-0.1,0-0.2,0l-0.5-0.1c-0.5-0.1-0.9-0.7-0.8-1.2c0.1-0.5,0.7-0.9,1.2-0.8l0.5,0.1c0.5,0.1,0.9,0.7,0.8,1.2
	C640.2,619.8,639.8,620.1,639.4,620.1z M635,619.1c-0.1,0-0.1,0-0.2,0l-0.5-0.1c-0.5-0.1-0.9-0.7-0.8-1.2c0.1-0.5,0.7-0.9,1.2-0.8
	l0.5,0.1c0.5,0.1,0.9,0.7,0.8,1.2C635.9,618.8,635.4,619.1,635,619.1z M630.6,618.2c-0.1,0-0.1,0-0.2,0l-0.5-0.1
	c-0.5-0.1-0.9-0.7-0.8-1.2c0.1-0.5,0.7-0.9,1.2-0.8l0.5,0.1c0.5,0.1,0.9,0.7,0.8,1.2C631.5,617.8,631,618.2,630.6,618.2z
	 M478.8,617.8c-0.3,0-0.6-0.2-0.8-0.4c-0.3-0.5-0.2-1.1,0.3-1.4l0.4-0.3c0.5-0.3,1.1-0.2,1.4,0.3c0.3,0.5,0.2,1.1-0.3,1.4l-0.4,0.3
	C479.2,617.7,479,617.8,478.8,617.8z M626.2,617.2c-0.1,0-0.1,0-0.2,0l-0.5-0.1c-0.5-0.1-0.9-0.7-0.8-1.2c0.1-0.5,0.7-0.9,1.2-0.8
	l0.5,0.1c0.5,0.1,0.9,0.7,0.8,1.2C627.1,616.9,626.7,617.2,626.2,617.2z M621.8,616.2c-0.1,0-0.1,0-0.2,0l-0.5-0.1
	c-0.5-0.1-0.9-0.7-0.8-1.2c0.1-0.5,0.7-0.9,1.2-0.8l0.5,0.1c0.5,0.1,0.9,0.7,0.8,1.2C622.7,615.9,622.3,616.2,621.8,616.2z
	 M482.5,615.2c-0.3,0-0.6-0.2-0.8-0.4c-0.3-0.5-0.2-1.1,0.3-1.4l0.4-0.3c0.5-0.3,1.1-0.2,1.4,0.3c0.3,0.5,0.2,1.1-0.3,1.4l-0.4,0.3
	C482.9,615.2,482.7,615.2,482.5,615.2z M617.4,615.2c-0.1,0-0.1,0-0.2,0l-0.5-0.1c-0.5-0.1-0.9-0.7-0.8-1.2c0.1-0.5,0.7-0.9,1.2-0.8
	l0.5,0.1c0.5,0.1,0.9,0.7,0.8,1.2C618.3,614.9,617.9,615.2,617.4,615.2z M613,614.2c-0.1,0-0.1,0-0.2,0l-0.5-0.1
	c-0.5-0.1-0.9-0.7-0.8-1.2c0.1-0.5,0.7-0.9,1.2-0.8l0.5,0.1c0.5,0.1,0.9,0.7,0.8,1.2C613.9,613.9,613.5,614.2,613,614.2z
	 M608.6,613.3c-0.1,0-0.1,0-0.2,0l-0.5-0.1c-0.5-0.1-0.9-0.7-0.8-1.2c0.1-0.5,0.7-0.9,1.2-0.8l0.5,0.1c0.5,0.1,0.9,0.7,0.8,1.2
	C609.5,613,609.1,613.3,608.6,613.3z M486.2,612.7c-0.3,0-0.6-0.2-0.8-0.4c-0.3-0.5-0.2-1.1,0.3-1.4l0.4-0.3
	c0.5-0.3,1.1-0.2,1.4,0.3c0.3,0.5,0.2,1.1-0.3,1.4l-0.4,0.3C486.6,612.6,486.4,612.7,486.2,612.7z M604.2,612.3c-0.1,0-0.1,0-0.2,0
	l-0.5-0.1c-0.5-0.1-0.9-0.7-0.8-1.2c0.1-0.5,0.7-0.9,1.2-0.8l0.5,0.1c0.5,0.1,0.9,0.7,0.8,1.2C605.1,612,604.7,612.3,604.2,612.3z
	 M599.8,611.3c-0.1,0-0.1,0-0.2,0l-0.5-0.1c-0.5-0.1-0.9-0.7-0.8-1.2c0.1-0.5,0.7-0.9,1.2-0.8l0.5,0.1c0.5,0.1,0.9,0.7,0.8,1.2
	C600.7,611,600.3,611.3,599.8,611.3z M595.5,610.3c-0.1,0-0.1,0-0.2,0l-0.5-0.1c-0.5-0.1-0.9-0.7-0.8-1.2c0.1-0.5,0.7-0.9,1.2-0.8
	l0.5,0.1c0.5,0.1,0.9,0.7,0.8,1.2C596.3,610,595.9,610.3,595.5,610.3z M489.9,610.1c-0.3,0-0.6-0.2-0.8-0.4
	c-0.3-0.5-0.2-1.1,0.3-1.4l0.4-0.3c0.5-0.3,1.1-0.2,1.4,0.3s0.2,1.1-0.3,1.4l-0.4,0.3C490.3,610.1,490.1,610.1,489.9,610.1z
	 M591.1,609.4c-0.1,0-0.1,0-0.2,0l-0.5-0.1c-0.5-0.1-0.9-0.7-0.8-1.2c0.1-0.5,0.7-0.9,1.2-0.8l0.5,0.1c0.5,0.1,0.9,0.7,0.8,1.2
	C591.9,609,591.5,609.4,591.1,609.4z M586.7,608.4c-0.1,0-0.1,0-0.2,0l-0.5-0.1c-0.5-0.1-0.9-0.7-0.8-1.2s0.7-0.9,1.2-0.8l0.5,0.1
	c0.5,0.1,0.9,0.7,0.8,1.2C587.5,608.1,587.1,608.4,586.7,608.4z M493.6,607.6c-0.3,0-0.6-0.2-0.8-0.4c-0.3-0.5-0.2-1.1,0.3-1.4
	l0.4-0.3c0.5-0.3,1.1-0.2,1.4,0.3s0.2,1.1-0.3,1.4l-0.4,0.3C494,607.5,493.8,607.6,493.6,607.6z M582.3,607.4c-0.1,0-0.1,0-0.2,0
	l-0.5-0.1c-0.5-0.1-0.9-0.7-0.8-1.2c0.1-0.5,0.7-0.9,1.2-0.8l0.5,0.1c0.5,0.1,0.9,0.7,0.8,1.2C583.1,607.1,582.7,607.4,582.3,607.4z
	 M577.9,606.4c-0.1,0-0.1,0-0.2,0l-0.5-0.1c-0.5-0.1-0.9-0.7-0.8-1.2s0.7-0.9,1.2-0.8l0.5,0.1c0.5,0.1,0.9,0.7,0.8,1.2
	C578.8,606.1,578.3,606.4,577.9,606.4z M573.5,605.4c-0.1,0-0.1,0-0.2,0l-0.5-0.1c-0.5-0.1-0.9-0.7-0.8-1.2c0.1-0.5,0.7-0.9,1.2-0.8
	l0.5,0.1c0.5,0.1,0.9,0.7,0.8,1.2C574.4,605.1,573.9,605.4,573.5,605.4z M497.3,605c-0.3,0-0.6-0.2-0.8-0.4
	c-0.3-0.5-0.2-1.1,0.3-1.4l0.4-0.3c0.5-0.3,1.1-0.2,1.4,0.3c0.3,0.5,0.2,1.1-0.3,1.4l-0.4,0.3C497.7,605,497.5,605,497.3,605z
	 M569.1,604.5c-0.1,0-0.1,0-0.2,0l-0.5-0.1c-0.5-0.1-0.9-0.7-0.8-1.2c0.1-0.5,0.7-0.9,1.2-0.8l0.5,0.1c0.5,0.1,0.9,0.7,0.8,1.2
	C570,604.1,569.6,604.5,569.1,604.5z M564.7,603.5c-0.1,0-0.1,0-0.2,0l-0.5-0.1c-0.5-0.1-0.9-0.7-0.8-1.2c0.1-0.5,0.7-0.9,1.2-0.8
	l0.5,0.1c0.5,0.1,0.9,0.7,0.8,1.2C565.6,603.2,565.2,603.5,564.7,603.5z M560.3,602.5c-0.1,0-0.1,0-0.2,0l-0.5-0.1
	c-0.5-0.1-0.9-0.7-0.8-1.2c0.1-0.5,0.7-0.9,1.2-0.8l0.5,0.1c0.5,0.1,0.9,0.7,0.8,1.2C561.2,602.2,560.8,602.5,560.3,602.5z
	 M501,602.5c-0.3,0-0.6-0.2-0.8-0.4c-0.3-0.5-0.2-1.1,0.3-1.4l0.4-0.3c0.5-0.3,1.1-0.2,1.4,0.3s0.2,1.1-0.3,1.4l-0.4,0.3
	C501.4,602.4,501.2,602.5,501,602.5z M555.9,601.5c-0.1,0-0.1,0-0.2,0l-0.5-0.1c-0.5-0.1-0.9-0.7-0.8-1.2c0.1-0.5,0.7-0.9,1.2-0.8
	l0.5,0.1c0.5,0.1,0.9,0.7,0.8,1.2C556.8,601.2,556.4,601.5,555.9,601.5z M551.5,600.5c-0.1,0-0.1,0-0.2,0l-0.5-0.1
	c-0.5-0.1-0.9-0.7-0.8-1.2c0.1-0.5,0.7-0.9,1.2-0.8l0.5,0.1c0.5,0.1,0.9,0.7,0.8,1.2C552.4,600.2,552,600.5,551.5,600.5z
	 M504.7,599.9c-0.3,0-0.6-0.2-0.8-0.4c-0.3-0.5-0.2-1.1,0.3-1.4l0.4-0.3c0.5-0.3,1.1-0.2,1.4,0.3s0.2,1.1-0.3,1.4l-0.4,0.3
	C505.1,599.9,504.9,599.9,504.7,599.9z M547.1,599.6c-0.1,0-0.1,0-0.2,0l-0.5-0.1c-0.5-0.1-0.9-0.7-0.8-1.2c0.1-0.5,0.7-0.9,1.2-0.8
	l0.5,0.1c0.5,0.1,0.9,0.7,0.8,1.2C548,599.2,547.6,599.6,547.1,599.6z M542.7,598.6c-0.1,0-0.1,0-0.2,0l-0.5-0.1
	c-0.5-0.1-0.9-0.7-0.8-1.2c0.1-0.5,0.7-0.9,1.2-0.8l0.5,0.1c0.5,0.1,0.9,0.7,0.8,1.2C543.6,598.3,543.2,598.6,542.7,598.6z
	 M538.4,597.6c-0.1,0-0.1,0-0.2,0l-0.5-0.1c-0.5-0.1-0.9-0.7-0.8-1.2c0.1-0.5,0.7-0.9,1.2-0.8l0.5,0.1c0.5,0.1,0.9,0.7,0.8,1.2
	C539.2,597.3,538.8,597.6,538.4,597.6z M508.4,597.4c-0.3,0-0.6-0.2-0.8-0.4c-0.3-0.5-0.2-1.1,0.3-1.4l0.4-0.3
	c0.5-0.3,1.1-0.2,1.4,0.3c0.3,0.5,0.2,1.1-0.3,1.4l-0.4,0.3C508.8,597.3,508.6,597.4,508.4,597.4z M534,596.6c-0.1,0-0.1,0-0.2,0
	l-0.5-0.1c-0.5-0.1-0.9-0.7-0.8-1.2c0.1-0.5,0.7-0.9,1.2-0.8l0.5,0.1c0.5,0.1,0.9,0.7,0.8,1.2C534.8,596.3,534.4,596.6,534,596.6z
	 M529.6,595.6c-0.1,0-0.1,0-0.2,0l-0.5-0.1c-0.5-0.1-0.9-0.7-0.8-1.2c0.1-0.5,0.7-0.9,1.2-0.8l0.5,0.1c0.5,0.1,0.9,0.7,0.8,1.2
	C530.4,595.3,530,595.6,529.6,595.6z M512.1,594.8c-0.3,0-0.6-0.2-0.8-0.4c-0.3-0.5-0.2-1.1,0.3-1.4l0.4-0.3
	c0.5-0.3,1.1-0.2,1.4,0.3c0.3,0.5,0.2,1.1-0.3,1.4l-0.4,0.3C512.5,594.8,512.3,594.8,512.1,594.8z M525.2,594.7c-0.1,0-0.1,0-0.2,0
	l-0.5-0.1c-0.5-0.1-0.9-0.7-0.8-1.2c0.1-0.5,0.7-0.9,1.2-0.8l0.5,0.1c0.5,0.1,0.9,0.7,0.8,1.2C526,594.3,525.6,594.7,525.2,594.7z
	 M520.8,593.7c-0.1,0-0.1,0-0.2,0l-0.5-0.1c-0.5-0.1-0.9-0.7-0.8-1.2c0.1-0.5,0.7-0.9,1.2-0.8l0.5,0.1c0.5,0.1,0.9,0.7,0.8,1.2
	C521.7,593.4,521.2,593.7,520.8,593.7z M516.4,592.7c-0.1,0-0.1,0-0.2,0l-0.5-0.1c-0.5-0.1-0.9-0.7-0.8-1.2c0.1-0.5,0.7-0.9,1.2-0.8
	l0.5,0.1c0.5,0.1,0.9,0.7,0.8,1.2C517.3,592.4,516.9,592.7,516.4,592.7z"/>
<path class="st0" d="M562.5,639.5c-0.6,0-1-0.4-1-1v-0.3c0-0.6,0.4-1,1-1s1,0.4,1,1v0.3C563.5,639.1,563.1,639.5,562.5,639.5z
	 M562.5,635.2c-0.6,0-1-0.4-1-1v-0.5c0-0.6,0.4-1,1-1s1,0.4,1,1v0.5C563.5,634.8,563.1,635.2,562.5,635.2z M562.5,630.7
	c-0.6,0-1-0.4-1-1v-0.5c0-0.6,0.4-1,1-1s1,0.4,1,1v0.5C563.5,630.2,563.1,630.7,562.5,630.7z M562.5,626.2c-0.6,0-1-0.4-1-1v-0.5
	c0-0.6,0.4-1,1-1s1,0.4,1,1v0.5C563.5,625.8,563.1,626.2,562.5,626.2z M561,622.5c-0.2,0-0.4-0.1-0.5-0.2l-0.4-0.3
	c-0.5-0.3-0.6-0.9-0.3-1.4c0.3-0.5,0.9-0.6,1.4-0.3l0.4,0.3c0.5,0.3,0.6,0.9,0.3,1.4C561.6,622.3,561.3,622.5,561,622.5z M557.2,620
	c-0.2,0-0.4-0.1-0.5-0.2l-0.4-0.3c-0.5-0.3-0.6-0.9-0.3-1.4c0.3-0.5,0.9-0.6,1.4-0.3l0.4,0.3c0.5,0.3,0.6,0.9,0.3,1.4
	C557.9,619.9,557.6,620,557.2,620z M553.5,617.6c-0.2,0-0.4-0.1-0.5-0.2l-0.4-0.3c-0.5-0.3-0.6-0.9-0.3-1.4c0.3-0.5,0.9-0.6,1.4-0.3
	l0.4,0.3c0.5,0.3,0.6,0.9,0.3,1.4C554.1,617.4,553.8,617.6,553.5,617.6z M549.7,615.1c-0.2,0-0.4-0.1-0.5-0.2l-0.4-0.3
	c-0.5-0.3-0.6-0.9-0.3-1.4c0.3-0.5,0.9-0.6,1.4-0.3l0.4,0.3c0.5,0.3,0.6,0.9,0.3,1.4C550.4,614.9,550,615.1,549.7,615.1z M546,612.6
	c-0.2,0-0.4-0.1-0.5-0.2l-0.4-0.3c-0.5-0.3-0.6-0.9-0.3-1.4c0.3-0.5,0.9-0.6,1.4-0.3l0.4,0.3c0.5,0.3,0.6,0.9,0.3,1.4
	C546.6,612.4,546.3,612.6,546,612.6z M542.2,610.1c-0.2,0-0.4-0.1-0.5-0.2l-0.4-0.3c-0.5-0.3-0.6-0.9-0.3-1.4
	c0.3-0.5,0.9-0.6,1.4-0.3l0.4,0.3c0.5,0.3,0.6,0.9,0.3,1.4C542.9,610,542.5,610.1,542.2,610.1z M538.5,607.6c-0.2,0-0.4-0.1-0.5-0.2
	l-0.4-0.3c-0.5-0.3-0.6-0.9-0.3-1.4c0.3-0.5,0.9-0.6,1.4-0.3l0.4,0.3c0.5,0.3,0.6,0.9,0.3,1.4C539.1,607.5,538.8,607.6,538.5,607.6z
	 M534.7,605.2c-0.2,0-0.4-0.1-0.5-0.2l-0.4-0.3c-0.5-0.3-0.6-0.9-0.3-1.4s0.9-0.6,1.4-0.3l0.4,0.3c0.5,0.3,0.6,0.9,0.3,1.4
	C535.3,605,535,605.2,534.7,605.2z M530.9,602.7c-0.2,0-0.4-0.1-0.5-0.2l-0.4-0.3c-0.5-0.3-0.6-0.9-0.3-1.4c0.3-0.5,0.9-0.6,1.4-0.3
	l0.4,0.3c0.5,0.3,0.6,0.9,0.3,1.4C531.6,602.5,531.3,602.7,530.9,602.7z M527.2,600.2c-0.2,0-0.4-0.1-0.5-0.2l-0.4-0.3
	c-0.5-0.3-0.6-0.9-0.3-1.4c0.3-0.5,0.9-0.6,1.4-0.3l0.4,0.3c0.5,0.3,0.6,0.9,0.3,1.4C527.8,600,527.5,600.2,527.2,600.2z
	 M523.4,597.7c-0.2,0-0.4-0.1-0.5-0.2l-0.4-0.3c-0.5-0.3-0.6-0.9-0.3-1.4c0.3-0.5,0.9-0.6,1.4-0.3l0.4,0.3c0.5,0.3,0.6,0.9,0.3,1.4
	C524.1,597.6,523.8,597.7,523.4,597.7z M519.7,595.3c-0.2,0-0.4-0.1-0.5-0.2l-0.4-0.3c-0.5-0.3-0.6-0.9-0.3-1.4
	c0.3-0.5,0.9-0.6,1.4-0.3l0.4,0.3c0.5,0.3,0.6,0.9,0.3,1.4C520.3,595.1,520,595.3,519.7,595.3z M515.9,592.8c-0.2,0-0.4-0.1-0.5-0.2
	l-0.4-0.3c-0.5-0.3-0.6-0.9-0.3-1.4c0.3-0.5,0.9-0.6,1.4-0.3l0.4,0.3c0.5,0.3,0.6,0.9,0.3,1.4C516.6,592.6,516.2,592.8,515.9,592.8z
	"/>
</svg>
