<?xml version="1.0" encoding="utf-8"?>
<!-- Generator: Adobe Illustrator 23.0.2, SVG Export Plug-In . SVG Version: 6.00 Build 0)  -->
<svg version="1.1" id="Layer_1" xmlns="http://www.w3.org/2000/svg" xmlns:xlink="http://www.w3.org/1999/xlink" x="0px" y="0px"
	 width="766.5px" height="733.9px" viewBox="0 0 766.5 733.9" style="enable-background:new 0 0 766.5 733.9;" xml:space="preserve"
	>
<style type="text/css">
	.st0{fill:#212121;}
	.st1{display:none;}
	.st2{display:inline;fill:#212121;}
	.st3{opacity:0.18;enable-background:new    ;}
	.st4{fill:url(#SVGID_1_);}
	.st5{opacity:0.17;fill:url(#reflection_1_);enable-background:new    ;}
	.st6{opacity:0.75;enable-background:new    ;}
	.st7{fill:url(#SVGID_2_);}
	.st8{fill:url(#SVGID_3_);}
	.st9{fill:none;stroke:#303030;stroke-width:4.1888;stroke-linecap:round;stroke-miterlimit:10;}
	.st10{display:inline;fill:none;stroke:#FFFFFF;stroke-width:0.2;stroke-miterlimit:10;}
	.st11{clip-path:url(#SVGID_5_);fill:#2F3030;}
	.st12{fill:url(#SVGID_6_);}
	.st13{fill:none;stroke:#FFFFFF;stroke-width:1.8975;stroke-linecap:round;stroke-miterlimit:10;}
	.st14{fill:none;stroke:#424242;stroke-width:1.8975;stroke-linecap:round;stroke-miterlimit:10;}
	.st15{fill:url(#SVGID_7_);}
	.st16{opacity:0.13;fill:#FFFFFF;enable-background:new    ;}
	.st17{fill:#FFFFFF;}
	.st18{fill:#2F3030;}
	.st19{fill:url(#SVGID_8_);}
	.st20{fill:url(#SVGID_9_);}
	.st21{opacity:0.36;fill:url(#SVGID_10_);enable-background:new    ;}
	.st22{fill:url(#SVGID_11_);}
	.st23{fill:url(#SVGID_12_);}
	.st24{fill:url(#SVGID_13_);}
	.st25{fill:url(#SVGID_14_);}
	.st26{fill:url(#SVGID_15_);}
	.st27{fill:url(#SVGID_16_);}
	.st28{fill:url(#SVGID_17_);}
	.st29{fill:url(#SVGID_18_);}
	.st30{fill:url(#SVGID_19_);}
	.st31{fill:url(#SVGID_20_);}
	.st32{clip-path:url(#SVGID_22_);}
	.st33{fill:url(#SVGID_23_);}
	.st34{fill:none;stroke:#545454;stroke-width:0.6098;stroke-miterlimit:10;}
	.st35{fill:none;stroke:url(#SVGID_24_);stroke-width:1.7952;stroke-miterlimit:10;}
	.st36{fill:none;}
	.st37{font-family:'SFProDisplay-Regular';}
	.st38{font-size:23.9359px;}
	.st39{font-family:'SFProDisplay-Ultralight';}
	.st40{fill:#852574;stroke:#852574;stroke-width:1.7952;stroke-miterlimit:10;}
	.st41{fill:none;stroke:#545454;stroke-width:0.5692;stroke-miterlimit:10;}
	.st42{fill:none;stroke:#2A3693;stroke-width:1.7952;stroke-miterlimit:10;}
	.st43{fill:#2A3693;stroke:#2A3693;stroke-width:1.7952;stroke-miterlimit:10;}
	.st44{clip-path:url(#SVGID_26_);}
	.st45{fill:url(#SVGID_27_);}
	.st46{fill:none;stroke:#545454;stroke-width:0.5819;stroke-miterlimit:10;}
	.st47{fill:none;stroke:url(#SVGID_28_);stroke-width:1.7952;stroke-miterlimit:10;}
	.st48{fill:#1F9386;stroke:#1F9386;stroke-width:1.7952;stroke-miterlimit:10;}
	.st49{fill:none;stroke:#545454;stroke-width:0.5819;stroke-miterlimit:10;stroke-dasharray:5.841,2.9208;}
	.st50{clip-path:url(#SVGID_30_);}
	.st51{fill:#2A3693;}
	.st52{fill:url(#SVGID_31_);}
	.st53{fill:url(#SVGID_32_);}
	.st54{fill:#00FAD4;}
	.st55{clip-path:url(#SVGID_34_);}
	.st56{fill:none;stroke:#00BFC4;stroke-width:0.1219;stroke-miterlimit:10;}
	.st57{fill:none;stroke:#E84DAD;stroke-width:0.1219;stroke-miterlimit:10;}
	.st58{fill:none;stroke:#FFFFFF;stroke-width:1.7952;stroke-miterlimit:10;}
</style>
<rect x="518" y="63" class="st0" width="242.6" height="85"/>
<rect x="518" y="174.3" class="st0" width="242.6" height="120"/>
<rect x="518" y="405.2" class="st0" width="242.6" height="120"/>
<g id="Matte" class="st1">
	<rect x="-18" y="-8.2" class="st2" width="180.7" height="149"/>
</g>
<g id="Layer_2">
	<polygon class="st0" points="-0.1,48.1 -0.1,92.6 94.2,92.6 121,108.3 101.8,74.9 100.9,48.1 	"/>
	<polygon class="st0" points="-0.1,219.9 -0.1,264.3 110.5,264.3 137.2,280 118,246.6 117.1,219.9 	"/>
	<polygon class="st0" points="-0.1,389 -0.1,433.5 110.5,433.5 137.2,449.2 118,415.8 117.1,389 	"/>
</g>
<g id="Phone_2_">
	<g>
		<path id="shadow_2_" class="st3" d="M129.8,636.2c0,0,215.4-124.5,218.4-126.3c3-1.8,18-7.2,32.3,0.6
			c14.4,7.8,95.1,55.1,95.1,55.1s18.6,10.2,3,20.3c-15.6,10.8-206.4,129.3-209.4,131s-19.1,9-34.7,0.6
			c-18-9.6-105.3-60.4-105.3-60.4s-6.6-3.6-6.6-9.6C122.6,639.8,129.8,636.2,129.8,636.2z"/>
		
			<linearGradient id="SVGID_1_" gradientUnits="userSpaceOnUse" x1="310.7581" y1="2860.873" x2="332.8844" y2="2949.3796" gradientTransform="matrix(1 0 0 1 0 -2230.9441)">
			<stop  offset="1.281415e-03" style="stop-color:#030303"/>
			<stop  offset="1" style="stop-color:#000000"/>
		</linearGradient>
		<path class="st4" d="M485.2,558.4c0-6-8.4-10.2-9-10.8c-13.8-7.8-82-47.3-95.7-55.1c-4.8-2.4-10.2-4.2-16.2-4.2
			c-4.8,0-9.6,1.2-13.8,3C347,493.2,128,619.5,128,619.5s-7.8,5.4-7.8,14.4c-0.6,12,6.6,14.4,9,16.8c3,2.4,92.2,52.7,104.1,59.2
			c4.2,2.4,10.8,5.4,17.4,5.4c9,0,16.2-3.6,18.6-4.8c1.2-0.6,195.1-120.3,212.4-132.2c4.8-3,4.8-7.2,4.8-9.6
			C485.2,568.6,485.2,559.6,485.2,558.4z"/>
		
			<linearGradient id="reflection_1_" gradientUnits="userSpaceOnUse" x1="328.2887" y1="2826.8049" x2="548.375" y2="2774.2974" gradientTransform="matrix(1 0 0 1 0 -2230.9441)">
			<stop  offset="0" style="stop-color:#FFFFFF"/>
			<stop  offset="1" style="stop-color:#000000"/>
		</linearGradient>
		<path id="reflection_2_" class="st5" d="M125.6,625.5c2.4-2.4,222-128.1,222-128.1s16.8-6.6,31.1,1.2
			c14.4,7.8,95.1,54.5,95.1,54.5s20.9,9,3,19.7C460.7,583,270.4,701.5,267.4,703.2c-3,1.8-19.1,9-34.7,0.6
			c-18-9.6-101.1-57.4-105.3-60.4C119,639.2,122.6,627.2,125.6,625.5z"/>
		<path class="st6" d="M481.7,560.8c-0.6-6-7.2-9.6-7.8-10.2c-13.2-7.8-80.8-46.7-93.9-53.9c-4.8-2.4-10.2-4.2-16.2-4.2
			c-4.8,0-9.6,1.2-13.2,3c-3.6,1.8-210,120.9-219,126.3c0,0-5.4,3-5.4,9c0,4.8,3,7.8,5.4,10.2c3,2.4,90.4,52.1,102.3,58.6
			c4.2,2.4,10.8,4.8,16.8,4.8c9,0,16.2-3,18-4.2c1.2-0.6,192.1-118.5,208.8-129.9C482.3,566.8,481.7,562.6,481.7,560.8z
			 M476.3,566.8c-16.8,11.4-207.6,129.3-208.8,129.9c-1.8,1.2-8.4,4.2-16.8,4.2c-5.4,0-10.8-2.4-15.6-4.8
			c-15-8.4-99.9-56.2-101.7-58c-2.4-1.8-4.2-4.2-4.2-7.8c0-4.2,3.6-6,3.6-6s215.4-123.9,219-126.3c3.6-1.8,7.8-2.4,12-2.4
			c5.4,0,10.2,1.2,14.4,3.6c12.6,7.2,75.4,43.1,93.9,53.9c0,0,5.4,3,6,7.8C478.7,562.6,479.3,565,476.3,566.8z"/>
		
			<linearGradient id="SVGID_2_" gradientUnits="userSpaceOnUse" x1="346.6297" y1="2849.0085" x2="287.3471" y2="2818.9492" gradientTransform="matrix(1 0 0 1 0 -2230.9441)">
			<stop  offset="1.281415e-03" style="stop-color:#212121"/>
			<stop  offset="0.9597" style="stop-color:#010101"/>
			<stop  offset="1" style="stop-color:#000000"/>
		</linearGradient>
		<polygon class="st7" points="360.2,492.6 347.6,497.4 210.6,577 131.6,621.3 125.6,627.8 126.2,636.2 135.8,644 198,679.3 
			239.9,702 250.7,703.8 268.6,699.7 293.2,684.1 473.9,571.6 481.7,565.6 482.3,559 478.1,553 402.1,508.8 372.7,493.2 		"/>
		<g>
			
				<linearGradient id="SVGID_3_" gradientUnits="userSpaceOnUse" x1="333.1737" y1="2816.7417" x2="591.4575" y2="2687.5994" gradientTransform="matrix(1 0 0 1 0 -2230.9441)">
				<stop  offset="1.281415e-03" style="stop-color:#030303"/>
				<stop  offset="1" style="stop-color:#000000"/>
			</linearGradient>
			<path class="st8" d="M484.1,560.2c-0.6-6-7.2-9.6-7.8-10.2c-13.8-7.8-82-47.3-95.7-55.1c-4.8-2.4-10.2-4.2-16.2-4.2
				c-4.8,0-9.6,1.2-13.8,3c-3,1.8-213,122.7-221.4,128.1c0,0-5.4,3-5.4,9c0,4.8,3,8.4,5.4,10.2c3,2.4,92.2,52.7,104.1,59.2
				c4.2,2.4,10.8,5.4,17.4,5.4c9,0,16.2-3,18.6-4.8c1.2-0.6,195.1-120.3,212.4-132.2C484.6,566.2,484.6,562,484.1,560.2z
				 M478.7,566.8c-17.4,11.4-210.6,131-211.8,132.2c-1.8,1.2-8.4,4.2-16.8,4.2c-5.4,0-11.4-2.4-15.6-4.8
				c-15.6-8.4-101.1-56.8-103.5-58.6s-4.2-4.2-4.2-7.8c0-4.2,3.6-6.6,4.2-6.6c0,0,218.4-126.3,222-128.1c3.6-1.8,7.8-2.4,12-2.4
				c5.4,0,10.2,1.2,15,3.6c1.8,1.2,91.6,52.7,95.7,55.1c0,0,5.4,3,6,7.8C481.7,562,481.7,564.4,478.7,566.8z"/>
		</g>
		<line class="st9" x1="171.7" y1="644.6" x2="220.2" y2="672.7"/>
		<g>
			<path d="M444,543.5l-58.6-34.7c-1.8-1.2-1.2-2.4,0.6-3.6l4.8-3l64.6,38.3l-4.8,3C448.1,544.1,445.8,544.7,444,543.5z"/>
		</g>
	</g>
</g>
<g id="Frame" class="st1">
	<line class="st10" x1="41.4" y1="116.3" x2="41.4" y2="4.8"/>
	<line class="st10" x1="80.2" y1="93" x2="80.2" y2="-0.1"/>
	<line class="st10" x1="60.8" y1="81.5" x2="60.8" y2="-1.5"/>
	<line class="st10" x1="20.8" y1="104.6" x2="20.8" y2="11.1"/>
</g>
<g>
	<g>
		<g>
			<defs>
				<path id="SVGID_4_" d="M490.6,245.5c-18.6,10.8-226.8,122.1-228,122.7c-1.8,1.2-9,3.6-18,3.6c-5.4,0-12-2.4-16.2-5.4
					c-16.2-8.4-105.9-58.6-108.3-61c-2.4-1.8-4.8-4.2-4.2-7.8c0-4.2,4.2-6,4.2-6s234.6-116.7,238.2-118.5c4.2-1.8,8.4-2.4,13.2-2.4
					c6,0,10.8,1.2,15.6,4.2c1.8,1.2,95.7,54.5,99.9,56.8c0,0,6,3,6.6,7.8C493.6,241.3,493.6,243.7,490.6,245.5z"/>
			</defs>
			<clipPath id="SVGID_5_">
				<use xlink:href="#SVGID_4_"  style="overflow:visible;"/>
			</clipPath>
			<polygon class="st11" points="231.5,394.5 100.5,295.7 317.1,185 459.5,276 			"/>
		</g>
	</g>
	<g>
		
			<linearGradient id="SVGID_6_" gradientUnits="userSpaceOnUse" x1="242.1952" y1="-82.0293" x2="362.6781" y2="-150.1429" gradientTransform="matrix(1 0 0 -1 0 124)">
			<stop  offset="0" style="stop-color:#2A3693"/>
			<stop  offset="1" style="stop-color:#209285"/>
		</linearGradient>
		<path class="st12" d="M322.5,195.8l61.6,38.3l-101.7,50.3l-61.6-38.3L322.5,195.8 M322.5,195.2l-102.9,50.9l62.8,38.9l102.9-50.9
			L322.5,195.2L322.5,195.2z"/>
	</g>
	<line class="st13" x1="390.1" y1="238.3" x2="431.4" y2="264"/>
	<line class="st14" x1="315.9" y1="331" x2="389.5" y2="292.7"/>
	<line class="st13" x1="384.1" y1="241.3" x2="415.2" y2="260.4"/>
	<line class="st13" x1="378.1" y1="244.9" x2="419.4" y2="270"/>
	<line class="st13" x1="280.6" y1="292.7" x2="321.9" y2="318.5"/>
	<line class="st13" x1="274.6" y1="295.7" x2="295" y2="308.3"/>
	<line class="st13" x1="268.6" y1="298.7" x2="309.9" y2="324.5"/>
	<line class="st13" x1="372.1" y1="247.9" x2="399.1" y2="264"/>
	<line class="st13" x1="365.6" y1="250.9" x2="393.1" y2="267.6"/>
	<line class="st13" x1="359.6" y1="253.8" x2="375.1" y2="263.4"/>
	<line class="st13" x1="353.6" y1="256.8" x2="394.9" y2="282"/>
	<line class="st13" x1="347" y1="259.8" x2="373.9" y2="276.6"/>
	<line class="st13" x1="341" y1="262.8" x2="382.3" y2="288.6"/>
	<line class="st13" x1="335" y1="265.8" x2="369.8" y2="287.4"/>
	<line class="st13" x1="329.1" y1="268.8" x2="369.8" y2="294.5"/>
	<line class="st13" x1="322.5" y1="271.8" x2="332.7" y2="278.4"/>
	<line class="st13" x1="350" y1="197.6" x2="391.3" y2="223.3"/>
	
		<linearGradient id="SVGID_7_" gradientUnits="userSpaceOnUse" x1="1245.8757" y1="405.3945" x2="1241.6384" y2="363.6767" gradientTransform="matrix(0.9829 0.5557 1.0005 -0.4518 -1213.9122 -291.9188)">
		<stop  offset="0" style="stop-color:#2A3693"/>
		<stop  offset="1" style="stop-color:#209285"/>
	</linearGradient>
	<polygon class="st15" points="447.5,268.2 322.5,191.6 342.8,181.4 467.9,258.6 	"/>
	<path class="st16" d="M441,261L335,195.8c-3.6-2.4-3.6-5.4,0-7.8l0,0c3.6-1.8,10.2-1.8,13.8,0.6l105.9,65.2c3.6,2.4,3.6,5.4,0,7.8
		l0,0C450.5,263.4,444.6,263.4,441,261z"/>
	<g>
		<path class="st17" d="M341,192.8L341,192.8L341,192.8c0.6,0,0.6-0.6,1.2-0.6c1.2-0.6,1.2-1.2,0-1.8c-1.2-0.6-2.4-0.6-3.6,0
			c-1.2,0.6-1.2,1.2,0,1.8C339.2,192.2,339.8,192.8,341,192.8L341,192.8h-0.6v1.2h0.6V192.8z M339.8,192.2c-0.6-0.6-0.6-1.2,0-1.2
			c0.6-0.6,1.8,0,2.4,0c0.6,0.6,0.6,1.2,0,1.2C341,192.2,340.4,192.2,339.8,192.2z"/>
	</g>
	<line class="st13" x1="351.8" y1="198.8" x2="393.1" y2="223.9"/>
	<path class="st18" d="M307.5,228.1"/>
	
		<linearGradient id="SVGID_8_" gradientUnits="userSpaceOnUse" x1="1194.48" y1="319.4427" x2="1223.6991" y2="319.4427" gradientTransform="matrix(0.9829 0.5557 1.0005 -0.4518 -1213.9122 -291.9188)">
		<stop  offset="0" style="stop-color:#2A3693"/>
		<stop  offset="1" style="stop-color:#209285"/>
	</linearGradient>
	<polygon class="st19" points="271,231.1 319.5,231.7 290.8,252.1 	"/>
	
		<linearGradient id="SVGID_9_" gradientUnits="userSpaceOnUse" x1="1216.6776" y1="319.7368" x2="1240.748" y2="319.7368" gradientTransform="matrix(0.9829 0.5557 1.0005 -0.4518 -1213.9122 -291.9188)">
		<stop  offset="0" style="stop-color:#2A3693"/>
		<stop  offset="1" style="stop-color:#209285"/>
	</linearGradient>
	<path class="st20" d="M319.5,231.7v23.9l-28.7-4.2L319.5,231.7z"/>
	
		<linearGradient id="SVGID_10_" gradientUnits="userSpaceOnUse" x1="1194.48" y1="312.6522" x2="1240.748" y2="312.6522" gradientTransform="matrix(0.9829 0.5557 1.0005 -0.4518 -1213.9122 -291.9188)">
		<stop  offset="0" style="stop-color:#2A3693"/>
		<stop  offset="1" style="stop-color:#209285"/>
	</linearGradient>
	<polygon class="st21" points="319.5,255.6 300.3,235.3 271,231.1 290.8,251.5 	"/>
	<g>
		
			<linearGradient id="SVGID_11_" gradientUnits="userSpaceOnUse" x1="1166.6572" y1="201.6602" x2="1343.4705" y2="228.3606" gradientTransform="matrix(0.9829 0.5557 1.0005 -0.4518 -1213.9122 -291.9188)">
			<stop  offset="0" style="stop-color:#852574"/>
			<stop  offset="1" style="stop-color:#1F9386"/>
		</linearGradient>
		<polyline class="st22" points="183.1,285.6 186,276.6 162.1,288 183.1,285.6 		"/>
		
			<linearGradient id="SVGID_12_" gradientUnits="userSpaceOnUse" x1="1039.7056" y1="284.6848" x2="1272.5743" y2="193.0348" gradientTransform="matrix(0.9829 0.5557 1.0005 -0.4518 -1213.9122 -291.9188)">
			<stop  offset="0" style="stop-color:#852574"/>
			<stop  offset="1" style="stop-color:#1F9386"/>
		</linearGradient>
		<polyline class="st23" points="206.4,299.9 223.7,299.3 199.8,311.3 206.4,299.9 		"/>
		<g>
			
				<linearGradient id="SVGID_13_" gradientUnits="userSpaceOnUse" x1="1157.4064" y1="168.3189" x2="1310.1503" y2="245.6911" gradientTransform="matrix(0.9829 0.5557 1.0005 -0.4518 -1213.9122 -291.9188)">
				<stop  offset="0" style="stop-color:#852574"/>
				<stop  offset="1" style="stop-color:#1F9386"/>
			</linearGradient>
			<polygon class="st24" points="162.1,288 183.1,285.6 174.7,302.9 			"/>
		</g>
		<g>
			
				<linearGradient id="SVGID_14_" gradientUnits="userSpaceOnUse" x1="1129.7124" y1="290.1723" x2="1263.0885" y2="164.2055" gradientTransform="matrix(0.9829 0.5557 1.0005 -0.4518 -1213.9122 -291.9188)">
				<stop  offset="0" style="stop-color:#852574"/>
				<stop  offset="1" style="stop-color:#1F9386"/>
			</linearGradient>
			<polygon class="st25" points="199.8,311.3 206.4,299.9 174.7,302.9 			"/>
		</g>
		<g>
			
				<linearGradient id="SVGID_15_" gradientUnits="userSpaceOnUse" x1="1211.7112" y1="186.0289" x2="1212.6292" y2="193.0894" gradientTransform="matrix(0.9829 0.5557 1.0005 -0.4518 -1213.9122 -291.9188)">
				<stop  offset="0" style="stop-color:#852574"/>
				<stop  offset="1" style="stop-color:#1F9386"/>
			</linearGradient>
			<polygon class="st26" points="162.1,288 172.3,304.1 174.7,302.9 			"/>
		</g>
		
			<linearGradient id="SVGID_16_" gradientUnits="userSpaceOnUse" x1="1161.609" y1="197.6711" x2="1344.0813" y2="174.2199" gradientTransform="matrix(0.9829 0.5557 1.0005 -0.4518 -1213.9122 -291.9188)">
			<stop  offset="0" style="stop-color:#852574"/>
			<stop  offset="1" style="stop-color:#1F9386"/>
		</linearGradient>
		<polyline class="st27" points="174.7,302.9 199.8,311.3 172.3,304.1 174.7,302.9 		"/>
		<g>
			
				<linearGradient id="SVGID_17_" gradientUnits="userSpaceOnUse" x1="1209.0737" y1="217.4641" x2="1233.924" y2="217.4641" gradientTransform="matrix(0.9829 0.5557 1.0005 -0.4518 -1213.9122 -291.9188)">
				<stop  offset="0" style="stop-color:#852574"/>
				<stop  offset="1" style="stop-color:#1F9386"/>
			</linearGradient>
			<polygon class="st28" points="183.1,285.6 213.6,283.8 206.4,299.9 			"/>
		</g>
		<g>
			
				<linearGradient id="SVGID_18_" gradientUnits="userSpaceOnUse" x1="1209.0764" y1="2890.1006" x2="1233.9266" y2="2890.1006" gradientTransform="matrix(0.9829 0.5557 -1.0005 0.4518 1875.5536 -1687.0414)">
				<stop  offset="0" style="stop-color:#852574"/>
				<stop  offset="1" style="stop-color:#1F9386"/>
			</linearGradient>
			<polygon class="st29" points="183.1,285.6 174.7,302.9 206.4,299.9 			"/>
		</g>
		<g>
			
				<linearGradient id="SVGID_19_" gradientUnits="userSpaceOnUse" x1="1184.8124" y1="197.1403" x2="1246.5759" y2="248.3589" gradientTransform="matrix(0.9829 0.5557 1.0005 -0.4518 -1213.9122 -291.9188)">
				<stop  offset="0" style="stop-color:#852574"/>
				<stop  offset="1" style="stop-color:#1F9386"/>
			</linearGradient>
			<polygon class="st30" points="213.6,283.8 186,276.6 183.1,285.6 			"/>
		</g>
		<g>
			
				<linearGradient id="SVGID_20_" gradientUnits="userSpaceOnUse" x1="1146.7909" y1="259.3182" x2="1158.3184" y2="253.3797" gradientTransform="matrix(0.9829 0.5557 1.0005 -0.4518 -1213.9122 -291.9188)">
				<stop  offset="0" style="stop-color:#852574"/>
				<stop  offset="1" style="stop-color:#1F9386"/>
			</linearGradient>
			<polygon class="st31" points="213.6,283.8 223.7,299.3 206.4,299.9 			"/>
		</g>
	</g>
	<g>
		<g>
			<defs>
				<polygon id="SVGID_21_" points="241.7,385.5 96.3,306.5 322.5,191.6 454.1,272.4 				"/>
			</defs>
			<clipPath id="SVGID_22_">
				<use xlink:href="#SVGID_21_"  style="overflow:visible;"/>
			</clipPath>
			<g class="st32">
				
					<linearGradient id="SVGID_23_" gradientUnits="userSpaceOnUse" x1="141.0079" y1="-134.0443" x2="256.4064" y2="-199.2834" gradientTransform="matrix(1 0 0 -1 0 124)">
					<stop  offset="0" style="stop-color:#852574"/>
					<stop  offset="1" style="stop-color:#1F9386"/>
				</linearGradient>
				<path class="st33" d="M213,250.3l61.6,38.3l-89.8,44.3l-64.6-37.1L213,250.3 M213.6,249.1l-93.3,46.1l65.8,37.7l91-44.9
					L213.6,249.1L213.6,249.1z"/>
			</g>
		</g>
	</g>
	<path class="st34" d="M490.6,245.5c-18.6,10.8-226.8,122.1-228,122.7c-1.8,1.2-9,3.6-18,3.6c-5.4,0-12-2.4-16.2-5.4
		c-16.2-8.4-105.9-58.6-108.3-61c-2.4-1.8-4.8-4.2-4.2-7.8c0-4.2,4.2-6,4.2-6s234.6-116.7,238.2-118.5c4.2-1.8,8.4-2.4,13.2-2.4
		c6,0,10.8,1.2,15.6,4.2c1.8,1.2,95.7,54.5,99.9,56.8c0,0,6,3,6.6,7.8C493.6,241.3,493.6,243.7,490.6,245.5z"/>
</g>
<linearGradient id="SVGID_24_" gradientUnits="userSpaceOnUse" x1="354.9491" y1="199.3359" x2="539.1028" y2="199.3359">
	<stop  offset="0" style="stop-color:#2A3693"/>
	<stop  offset="1" style="stop-color:#852574"/>
</linearGradient>
<polyline class="st35" points="355.4,224.5 443.3,174.3 539.1,174.3 "/>
<rect x="545.1" y="197" class="st36" width="221.4" height="92.8"/>
<text transform="matrix(1 0 0 1 544.9492 213.625)" class="st17 st37 st38">Annotate</text>
<text transform="matrix(1 0 0 1 642.6434 213.625)" class="st17 st39 st38"> to search </text>
<text transform="matrix(1 0 0 1 544.9492 242.3477)" class="st17 st39 st38">using keywords and </text>
<text transform="matrix(1 0 0 1 544.9492 271.0703)" class="st17 st39 st38">logical operators</text>
<polygon class="st40" points="539.1,174.3 546.9,182 612.7,182 612.7,174.3 "/>
<g>
	<path class="st41" d="M475.1,402.3C457.7,413,260.8,524.3,259.7,525.5c-1.8,1.2-8.4,3.6-16.8,3.6c-5.4,0-10.8-2.4-15-4.2
		c-14.4-7.8-94.5-52.7-96.3-54.5c-1.8-1.8-4.2-4.2-3.6-7.8c0-3.6,4.2-6,4.2-6s221.4-117.3,225-119.1c3.6-1.8,7.8-2.4,12-2.4
		c5.4,0,10.2,1.2,13.8,3c1.8,1.2,85,48.5,89.2,50.9c0,0,5.4,3,5.4,7.2C478.1,398.1,478.1,400.5,475.1,402.3z"/>
</g>
<rect x="544.5" y="428" class="st36" width="216" height="95.1"/>
<text transform="matrix(1 0 0 1 544.2969 444.8945)" class="st17 st37 st38">Connect </text>
<text transform="matrix(1 0 0 1 635.2539 444.8945)" class="st17 st39 st38">with your </text>
<text transform="matrix(1 0 0 1 544.2969 473.6133)" class="st17 st39 st38">friends to </text>
<text transform="matrix(1 0 0 1 635.2539 473.6133)" class="st17 st37 st38">share </text>
<text transform="matrix(1 0 0 1 695.6914 473.6133)" class="st17 st39 st38">and </text>
<text transform="matrix(1 0 0 1 544.2969 502.3398)" class="st17 st37 st38">send messages</text>
<line class="st42" x1="476.4" y1="405.2" x2="538.5" y2="405.2"/>
<polygon class="st43" points="538.5,405.2 546.3,413 612.1,413 612.1,405.2 "/>
<g>
	<g>
		<g>
			<defs>
				<path id="SVGID_25_" d="M486.4,84.5c-18.6,9.6-227.4,105.3-229.2,105.9c-1.8,0.6-9,3-18,2.4c-5.4-0.6-11.4-3-15.6-5.4
					c-15.6-9-99.9-58.6-102.3-60.4c-2.4-1.8-4.2-4.2-3.6-7.8c0.6-3.6,4.8-5.4,4.8-5.4S357.8,13.9,361.4,12.7"/>
			</defs>
			<clipPath id="SVGID_26_">
				<use xlink:href="#SVGID_25_"  style="overflow:visible;"/>
			</clipPath>
			<g class="st44">
				
					<linearGradient id="SVGID_27_" gradientUnits="userSpaceOnUse" x1="908.3112" y1="681.3669" x2="896.2289" y2="634.9875" gradientTransform="matrix(1.0323 0.6103 1.4252 -0.7152 -1658.5536 65.5379)">
					<stop  offset="0" style="stop-color:#2A3693"/>
					<stop  offset="1" style="stop-color:#209285"/>
				</linearGradient>
				<polygon class="st45" points="129.8,107.8 265,188 240.5,200 105.3,120.4 				"/>
				<g>
					<path class="st17" d="M150.1,126.4l-7.2-4.2c-0.6,0-1.2,0-1.8,0l-9,4.8c-0.6,0.6-0.6,0.6-0.6,1.2l7.2,4.2c0.6,0,1.2,0,1.8,0
						l9-4.8C150.1,127,150.7,126.4,150.1,126.4z M144.8,129.4h-0.6l-1.8-1.2h-0.6c-0.6,0-1.2,0-1.2,0l-1.8-1.2v-0.6c0,0,0,0,0-0.6
						l-1.8-0.6v-0.6l4.2-1.8h0.6l7.2,4.2v0.6L144.8,129.4z"/>
					<path class="st17" d="M146.6,127l-5.4-3.6c0,0,0,0,0-0.6h0.6l5.4,3.6c0,0,0,0,0,0.6S146.6,127.6,146.6,127z M144.8,128.2l-6-3
						c0,0,0,0,0-0.6h0.6L144.8,128.2c0,0,0,0,0,0.6C145.4,128.2,144.8,128.2,144.8,128.2z"/>
				</g>
				<g>
					<path class="st17" d="M239.9,180.8l0.6-1.2V179l-6-3.6c0,0-0.6,0-1.2,0h-1.8c-0.6,0-0.6,0-1.2,0l-8.4,4.2
						c-0.6,0.6-1.2,1.2-0.6,1.2l7.2,4.2c0.6,0.6,1.8,0,2.4,0l8.4-4.2H239.9L239.9,180.8z M227.3,182l0.6-3l1.8,1.2l1.2-0.6l1.8,1.2
						l-1.2,0.6l1.8,1.2L227.3,182z M232.1,176.1h1.2l6,3.6v0.6L232.1,176.1z"/>
				</g>
			</g>
		</g>
	</g>
	<g>
		<path class="st46" d="M485.8,84.5c-18.6,9.6-227.4,105.3-229.2,105.9c-1.8,0.6-9,3-18,2.4c-5.4-0.6-11.4-3-15.6-5.4
			c-15.6-9-99.9-58.6-102.3-60.4c-2.4-1.8-4.2-4.2-3.6-7.8c0.6-3.6,4.8-5.4,4.8-5.4S357.2,13.9,360.8,12.7c4.2-1.2,8.4-1.8,12.6-1.8
			c5.4,0.6,10.8,1.8,15,4.2c1.8,1.2,90.4,53.9,94.5,56.2c0,0,5.4,3,6,7.8C488.8,80.3,488.8,82.7,485.8,84.5z"/>
	</g>
</g>
<linearGradient id="SVGID_28_" gradientUnits="userSpaceOnUse" x1="247.7185" y1="120.5339" x2="538.5044" y2="120.5339">
	<stop  offset="1.281415e-03" style="stop-color:#2A3693"/>
	<stop  offset="1" style="stop-color:#209285"/>
</linearGradient>
<polyline class="st47" points="248.1,178.2 505,63 538.5,63 "/>
<rect x="544.5" y="85.7" class="st36" width="166.4" height="58"/>
<text transform="matrix(1 0 0 1 544.2969 102.5547)" class="st17 st37 st38">Upload </text>
<text transform="matrix(1 0 0 1 622.0898 102.5547)" class="st17 st39 st38">your </text>
<text transform="matrix(1 0 0 1 544.2969 131.2773)" class="st17 st39 st38">screenshots</text>
<polygon class="st48" points="538.5,63 546.3,70.7 612.1,70.7 612.1,63 "/>
<g>
	<g>
		<line class="st46" x1="135.8" y1="144.9" x2="135.8" y2="147.9"/>
		<line class="st49" x1="135.8" y1="150.3" x2="135.8" y2="271.8"/>
		<line class="st46" x1="135.8" y1="273" x2="135.8" y2="276"/>
	</g>
</g>
<rect x="22.7" y="55.8" class="st36" width="92.2" height="32.3"/>
<text transform="matrix(1 0 0 1 22.6172 77.4219)" class="st17 st37 st38">Footer</text>
<rect x="22.7" y="232.9" class="st36" width="92.2" height="32.3"/>
<text transform="matrix(1 0 0 1 22.6172 249.8867)" class="st17 st37 st38">Content</text>
<rect x="22.7" y="402" class="st36" width="92.2" height="32.3"/>
<text transform="matrix(1 0 0 1 22.6172 419.1016)" class="st17 st37 st38">Header</text>
<g>
	<defs>
		<path id="SVGID_29_" d="M475.1,402.3C457.7,413,260.8,524.3,259.7,525.5c-1.8,1.2-8.4,3.6-16.8,3.6c-5.4,0-10.8-2.4-15-4.2
			c-14.4-7.8-94.5-52.7-96.3-54.5c-1.8-1.8-4.2-4.2-3.6-7.8c0-3.6,4.2-6,4.2-6s221.4-117.3,225-119.1c3.6-1.8,7.8-2.4,12-2.4
			c5.4,0,10.2,1.2,13.8,3c1.8,1.2,85,48.5,89.2,50.9c0,0,5.4,3,5.4,7.2C478.1,398.1,478.1,400.5,475.1,402.3z"/>
	</defs>
	<clipPath id="SVGID_30_">
		<use xlink:href="#SVGID_29_"  style="overflow:visible;"/>
	</clipPath>
	<g class="st50">
		<polygon class="st51" points="425.4,400.1 363.7,364.7 394.9,345.2 456.7,380.7 		"/>
		
			<linearGradient id="SVGID_31_" gradientUnits="userSpaceOnUse" x1="504.0949" y1="156.3667" x2="534.4211" y2="156.3667" gradientTransform="matrix(0.8573 0.4922 -0.9745 0.607 72.7309 -3.4584)">
			<stop  offset="0" style="stop-color:#852574"/>
			<stop  offset="1" style="stop-color:#2A3693"/>
		</linearGradient>
		<polygon class="st52" points="363.7,364.7 335.7,348.6 367,329.2 394.9,345.2 		"/>
		
			<linearGradient id="SVGID_32_" gradientUnits="userSpaceOnUse" x1="474.2439" y1="156.3667" x2="504.6837" y2="156.3667" gradientTransform="matrix(-0.8573 -0.4922 -0.9745 0.607 1026.8767 544.3193)">
			<stop  offset="0" style="stop-color:#852574"/>
			<stop  offset="1" style="stop-color:#2A3693"/>
		</linearGradient>
		<polygon class="st53" points="425.4,400.1 453.5,416.2 484.7,396.8 456.7,380.7 		"/>
		<g>
			<path class="st54" d="M431.9,395l-0.3-0.2l0-0.1c0.9-0.1,1.8-0.4,2.6-0.9c1.7-1,1.8-2.5,0.4-3.4c-1.4-0.8-3.9-0.7-5.6,0.4
				c-1.7,1-1.8,2.5-0.4,3.4c0.6,0.4,1.5,0.5,2.4,0.5l0,0.1l-0.4,0.2l-0.3,2.6l1.3-0.1L431.9,395z M429.5,393.6
				c-1-0.6-0.9-1.6,0.3-2.3c1.1-0.7,2.9-0.8,3.9-0.2c1,0.6,0.9,1.6-0.3,2.3C432.2,394.1,430.5,394.2,429.5,393.6z"/>
		</g>
		<g>
			<path class="st17" d="M449.1,406.6c-0.5-0.3-0.4-0.7,0.1-1.1l3.4-2.1l-0.2-0.1c-0.3-0.2-0.8-0.1-1.2,0.1l-5.7,3.6l2.3-0.1
				l3.9,2.3c0.3,0.2,0.9,0.1,1.2-0.1l0.1-0.1L449.1,406.6z"/>
			<path class="st17" d="M461.2,405.6l-5.1-2.9c-0.4-0.2-1-0.2-1.4,0.1l-4.7,2.9c-0.4,0.2-0.4,0.6-0.1,0.8l4.4,2.5l0.3,1.5l6.5-4.1
				C461.5,406.2,461.6,405.8,461.2,405.6L461.2,405.6z"/>
		</g>
		<g>
			<path class="st17" d="M442.4,399.9c1,0.6,2.7,0.5,3.8-0.2c1.1-0.7,1.2-1.7,0.2-2.3c-1-0.6-2.7-0.5-3.8,0.2
				C441.6,398.3,441.4,399.4,442.4,399.9z M441.4,400.6c-1.2-0.7-4.2-1.6-5.6-0.8l-1,0.6l7.1,4.1l1-0.6
				C444.3,403,442.6,401.2,441.4,400.6z"/>
		</g>
		<g>
			<path class="st17" d="M389.1,368.5c0.7,0.4,0.7,0.9,0.1,1.3l-0.6-0.3c0.3-0.2,0.3-0.5-0.1-0.7c-0.3-0.2-0.7-0.2-1,0
				c-0.2,0.1-0.2,0.3,0,0.5l0.4,0.4c0.4,0.4,0.4,0.7-0.1,1c-0.6,0.4-1.5,0.4-2.2,0c-0.7-0.4-0.8-0.9-0.2-1.4l0.6,0.3
				c-0.3,0.3-0.3,0.5,0.1,0.7c0.4,0.2,0.8,0.2,1,0.1c0.2-0.1,0.2-0.3,0-0.5l-0.4-0.4c-0.4-0.4-0.4-0.8,0.1-1.1
				C387.6,368.1,388.4,368.1,389.1,368.5z"/>
			<path class="st17" d="M391.5,371.4c0.3-0.3,0.3-0.6-0.1-0.8c-0.5-0.3-1.2-0.2-1.9,0.3c-0.7,0.5-0.9,0.9-0.4,1.2
				c0.4,0.2,0.9,0.2,1.3,0l0.6,0.3c-0.8,0.4-1.8,0.4-2.5,0c-0.8-0.5-0.7-1.2,0.3-1.9c1.1-0.7,2.3-0.8,3.1-0.3c0.8,0.4,0.7,1,0.1,1.5
				L391.5,371.4z"/>
			<path class="st17" d="M393.7,371.2l0.6,0.3l-0.6,0.4l0,0c0.5-0.2,1-0.2,1.3,0c0.1,0,0.1,0.1,0.2,0.1l-0.6,0.4
				c0,0-0.1-0.1-0.2-0.2c-0.4-0.2-0.9-0.2-1.4,0.1l-2,1.3l-0.6-0.3L393.7,371.2z"/>
			<path class="st17" d="M395.6,375.2c-0.7,0.3-1.6,0.3-2.3-0.1c-0.9-0.5-0.7-1.2,0.3-1.9c1.1-0.7,2.3-0.8,3.1-0.3
				c0.8,0.5,0.7,1.2-0.3,1.8l-0.2,0.1l-2.1-1.2l0,0c-0.6,0.4-0.7,0.8-0.2,1.1c0.3,0.2,0.8,0.2,1.2,0.1L395.6,375.2z M394.6,373.4
				l1.5,0.8c0.5-0.3,0.6-0.7,0.2-1C395.8,373,395.1,373.1,394.6,373.4z"/>
			<path class="st17" d="M398.7,376.9c-0.7,0.3-1.6,0.3-2.3-0.1c-0.9-0.5-0.7-1.2,0.3-1.9c1.1-0.7,2.3-0.8,3.1-0.3
				c0.8,0.5,0.7,1.2-0.3,1.8l-0.2,0.1l-2.1-1.2l0,0c-0.6,0.4-0.7,0.8-0.2,1.1c0.3,0.2,0.8,0.2,1.2,0.1L398.7,376.9z M397.6,375.1
				l1.5,0.8c0.5-0.3,0.6-0.7,0.2-1C398.8,374.8,398.2,374.8,397.6,375.1z"/>
			<path class="st17" d="M401.5,375.7l0.6,0.3l-0.6,0.3l0,0c0.5-0.1,1.1-0.1,1.5,0.1c0.7,0.4,0.6,0.9-0.2,1.4l-2.2,1.4l-0.6-0.3
				l2-1.3c0.5-0.3,0.6-0.6,0.2-0.8c-0.4-0.2-1-0.2-1.6,0.1l-2,1.2l-0.6-0.3L401.5,375.7z"/>
			<path class="st17" d="M405.5,379.4c0.3-0.3,0.3-0.6-0.1-0.8c-0.5-0.3-1.2-0.2-1.9,0.3c-0.7,0.5-0.9,0.9-0.4,1.2
				c0.4,0.2,0.9,0.2,1.3,0l0.6,0.3c-0.8,0.4-1.8,0.4-2.5,0c-0.8-0.5-0.7-1.2,0.3-1.9c1.1-0.7,2.3-0.8,3.1-0.3c0.8,0.4,0.7,1,0.1,1.5
				L405.5,379.4z"/>
			<path class="st17" d="M405.1,380.7c0.6-0.4,1.3-0.4,2.1,0l0.9,0.4l0.3-0.2c0.4-0.2,0.4-0.5,0-0.7c-0.4-0.2-0.8-0.2-1.1-0.1
				l-0.6-0.3c0.6-0.4,1.5-0.4,2.3,0c0.7,0.4,0.7,0.9,0.1,1.4l-2.3,1.4l-0.6-0.3l0.6-0.3l0,0c-0.5,0.1-1.2,0.1-1.5-0.2
				C404.5,381.5,404.5,381,405.1,380.7z M407.3,381.6l0.3-0.2l-0.8-0.4c-0.4-0.2-0.8-0.2-1.1,0c-0.3,0.2-0.3,0.4,0.1,0.6
				C406.2,381.9,406.9,381.8,407.3,381.6z"/>
			<path class="st17" d="M411.4,382.8c0.3-0.3,0.3-0.6-0.1-0.8c-0.5-0.3-1.2-0.2-1.9,0.3c-0.7,0.5-0.9,0.9-0.4,1.2
				c0.4,0.2,0.9,0.2,1.3,0l0.6,0.3c-0.8,0.4-1.8,0.4-2.5,0c-0.8-0.5-0.7-1.2,0.3-1.9c1.1-0.7,2.3-0.8,3.1-0.3c0.8,0.4,0.7,1,0.1,1.5
				L411.4,382.8z"/>
			<path class="st17" d="M414.9,381.9l0.6,0.3l-1.8,1.1l0,0c0.6-0.2,1.1-0.1,1.6,0.2c0.6,0.4,0.5,0.9-0.2,1.4l-2.2,1.3l-0.6-0.3
				l2-1.3c0.5-0.3,0.6-0.6,0.1-0.9c-0.4-0.3-1.1-0.2-1.6,0.1l-1.9,1.2l-0.6-0.3L414.9,381.9z"/>
			<path class="st17" d="M417,387.4c-0.7,0.3-1.6,0.3-2.3-0.1c-0.9-0.5-0.7-1.2,0.3-1.9c1.1-0.7,2.3-0.8,3.1-0.3
				c0.8,0.5,0.7,1.2-0.3,1.8l-0.2,0.1l-2.1-1.2l0,0c-0.6,0.4-0.7,0.8-0.2,1.1c0.3,0.2,0.8,0.2,1.2,0.1L417,387.4z M415.9,385.6
				l1.5,0.8c0.5-0.3,0.6-0.7,0.2-1C417.1,385.3,416.4,385.3,415.9,385.6z"/>
		</g>
		<g>
			<g id="id2_2_">
				<g id="bg-id2_2_">
				</g>
				<g id="bo-id2_2_">
				</g>
			</g>
		</g>
		<g>
			<defs>
				<polygon id="SVGID_33_" points="447.9,413 335.8,348.6 367.1,329.1 479.2,393.5 				"/>
			</defs>
			<clipPath id="SVGID_34_">
				<use xlink:href="#SVGID_33_"  style="overflow:visible;"/>
			</clipPath>
			<g class="st55">
				<g>
					<g>
						<g id="id1_4_">
							<g>
								<g>
									<g id="id3_4_">
										<path class="st56" d="M339.9,354.1l6.3,0.6l1.4,3.7l-4.9,3.1l-6.3-0.6l-1.4-3.7L339.9,354.1z M358.8,355.8l6.3,0.6
											l1.4,3.7l-4.9,3.1l-6.3-0.6l-1.4-3.7L358.8,355.8z M377.7,357.5l6.3,0.6l1.4,3.7l-4.9,3.1l-6.3-0.6l-1.4-3.7L377.7,357.5z
											 M391.7,362.3l-6.3-0.6l-1.4-3.7l4.9-3.1l6.3,0.6l1.4,3.7L391.7,362.3z M372.8,360.6l-6.3-0.6l-1.4-3.7l4.9-3.1l6.3,0.6
											l1.4,3.7L372.8,360.6z M353.9,359l-6.3-0.6l-1.4-3.7l4.9-3.1l6.3,0.6l1.4,3.7L353.9,359z M343.4,347.3l6.3,0.6l1.4,3.7
											l-4.9,3.1l-6.3-0.6l-1.4-3.7L343.4,347.3z M362.3,349l6.3,0.6l1.4,3.7l-4.9,3.1l-6.3-0.6l-1.4-3.7L362.3,349z
											 M381.2,350.7l6.3,0.6l1.4,3.7l-4.9,3.1l-6.3-0.6l-1.4-3.7L381.2,350.7z M395.2,355.5l-6.3-0.6l-1.4-3.7l4.9-3.1l6.3,0.6
											l1.4,3.7L395.2,355.5z M376.3,353.8l-6.3-0.6l-1.4-3.7l4.9-3.1l6.3,0.6l1.4,3.7L376.3,353.8z M357.4,352.1l-6.3-0.6
											l-1.4-3.7l4.9-3.1l6.3,0.6l1.4,3.7L357.4,352.1z M346.9,340.5l6.3,0.6l1.4,3.7l-4.9,3.1l-6.3-0.6l-1.4-3.7L346.9,340.5z
											 M365.8,342.2l6.3,0.6l1.4,3.7l-4.9,3.1l-6.3-0.6l-1.4-3.7L365.8,342.2z M384.7,343.9l6.3,0.6l1.4,3.7l-4.9,3.1l-6.3-0.6
											l-1.4-3.7L384.7,343.9z M398.7,348.7l-6.3-0.6l-1.4-3.7l4.9-3.1l6.3,0.6l1.4,3.7L398.7,348.7z M379.8,347l-6.3-0.6
											l-1.4-3.7l4.9-3.1l6.3,0.6l1.4,3.7L379.8,347z M360.9,345.3l-6.3-0.6l-1.4-3.7l4.9-3.1l6.3,0.6l1.4,3.7L360.9,345.3z
											 M350.4,333.6l6.3,0.6l1.4,3.7l-4.9,3.1l-6.3-0.6l-1.4-3.7L350.4,333.6z M369.3,335.3l6.3,0.6l1.4,3.7l-4.9,3.1l-6.3-0.6
											l-1.4-3.7L369.3,335.3z M388.2,337l6.3,0.6l1.4,3.7l-4.9,3.1l-6.3-0.6l-1.4-3.7L388.2,337z M402.2,341.9l-6.3-0.6
											l-1.4-3.7l4.9-3.1l6.3,0.6l1.4,3.7L402.2,341.9z M383.3,340.2l-6.3-0.6l-1.4-3.7l4.9-3.1l6.3,0.6l1.4,3.7L383.3,340.2z
											 M364.4,338.5l-6.3-0.6l-1.4-3.7l4.9-3.1l6.3,0.6l1.4,3.7L364.4,338.5z M353.9,326.8l6.3,0.6l1.4,3.7l-4.9,3.1l-6.3-0.6
											L349,330L353.9,326.8z M372.8,328.5l6.3,0.6l1.4,3.7l-4.9,3.1l-6.3-0.6l-1.4-3.7L372.8,328.5z M391.7,330.2l6.3,0.6
											l1.4,3.7l-4.9,3.1l-6.3-0.6l-1.4-3.7L391.7,330.2z M405.7,335l-6.3-0.6l-1.4-3.7l4.9-3.1l6.3,0.6l1.4,3.7L405.7,335z
											 M386.8,333.3l-6.3-0.6l-1.4-3.7l4.9-3.1l6.3,0.6l1.4,3.7L386.8,333.3z M367.9,331.7l-6.3-0.6l-1.4-3.7l4.9-3.1l6.3,0.6
											l1.4,3.7L367.9,331.7z"/>
										<path class="st56" d="M339.9,354.1l6.3,0.6l1.4,3.7l-4.9,3.1l-6.3-0.6l-1.4-3.7L339.9,354.1z"/>
										<path class="st56" d="M358.8,355.8l6.3,0.6l1.4,3.7l-4.9,3.1l-6.3-0.6l-1.4-3.7L358.8,355.8z"/>
										<path class="st56" d="M377.7,357.5l6.3,0.6l1.4,3.7l-4.9,3.1l-6.3-0.6l-1.4-3.7L377.7,357.5z"/>
										<path class="st56" d="M391.7,362.3l-6.3-0.6l-1.4-3.7l4.9-3.1l6.3,0.6l1.4,3.7L391.7,362.3z"/>
										<path class="st56" d="M372.8,360.6l-6.3-0.6l-1.4-3.7l4.9-3.1l6.3,0.6l1.4,3.7L372.8,360.6z"/>
										<path class="st56" d="M353.9,359l-6.3-0.6l-1.4-3.7l4.9-3.1l6.3,0.6l1.4,3.7L353.9,359z"/>
										<path class="st56" d="M343.4,347.3l6.3,0.6l1.4,3.7l-4.9,3.1l-6.3-0.6l-1.4-3.7L343.4,347.3z"/>
										<path class="st56" d="M362.3,349l6.3,0.6l1.4,3.7l-4.9,3.1l-6.3-0.6l-1.4-3.7L362.3,349z"/>
										<path class="st56" d="M381.2,350.7l6.3,0.6l1.4,3.7l-4.9,3.1l-6.3-0.6l-1.4-3.7L381.2,350.7z"/>
										<path class="st56" d="M395.2,355.5l-6.3-0.6l-1.4-3.7l4.9-3.1l6.3,0.6l1.4,3.7L395.2,355.5z"/>
										<path class="st56" d="M376.3,353.8l-6.3-0.6l-1.4-3.7l4.9-3.1l6.3,0.6l1.4,3.7L376.3,353.8z"/>
										<path class="st56" d="M357.4,352.1l-6.3-0.6l-1.4-3.7l4.9-3.1l6.3,0.6l1.4,3.7L357.4,352.1z"/>
										<path class="st56" d="M346.9,340.5l6.3,0.6l1.4,3.7l-4.9,3.1l-6.3-0.6l-1.4-3.7L346.9,340.5z"/>
										<path class="st56" d="M365.8,342.2l6.3,0.6l1.4,3.7l-4.9,3.1l-6.3-0.6l-1.4-3.7L365.8,342.2z"/>
										<path class="st56" d="M384.7,343.9l6.3,0.6l1.4,3.7l-4.9,3.1l-6.3-0.6l-1.4-3.7L384.7,343.9z"/>
										<path class="st56" d="M398.7,348.7l-6.3-0.6l-1.4-3.7l4.9-3.1l6.3,0.6l1.4,3.7L398.7,348.7z"/>
										<path class="st56" d="M379.8,347l-6.3-0.6l-1.4-3.7l4.9-3.1l6.3,0.6l1.4,3.7L379.8,347z"/>
										<path class="st56" d="M360.9,345.3l-6.3-0.6l-1.4-3.7l4.9-3.1l6.3,0.6l1.4,3.7L360.9,345.3z"/>
										<path class="st56" d="M350.4,333.6l6.3,0.6l1.4,3.7l-4.9,3.1l-6.3-0.6l-1.4-3.7L350.4,333.6z"/>
										<path class="st56" d="M369.3,335.3l6.3,0.6l1.4,3.7l-4.9,3.1l-6.3-0.6l-1.4-3.7L369.3,335.3z"/>
										<path class="st56" d="M388.2,337l6.3,0.6l1.4,3.7l-4.9,3.1l-6.3-0.6l-1.4-3.7L388.2,337z"/>
										<path class="st56" d="M402.2,341.9l-6.3-0.6l-1.4-3.7l4.9-3.1l6.3,0.6l1.4,3.7L402.2,341.9z"/>
										<path class="st56" d="M383.3,340.2l-6.3-0.6l-1.4-3.7l4.9-3.1l6.3,0.6l1.4,3.7L383.3,340.2z"/>
										<path class="st56" d="M364.4,338.5l-6.3-0.6l-1.4-3.7l4.9-3.1l6.3,0.6l1.4,3.7L364.4,338.5z"/>
										<path class="st56" d="M353.9,326.8l6.3,0.6l1.4,3.7l-4.9,3.1l-6.3-0.6L349,330L353.9,326.8z"/>
										<path class="st56" d="M372.8,328.5l6.3,0.6l1.4,3.7l-4.9,3.1l-6.3-0.6l-1.4-3.7L372.8,328.5z"/>
										<path class="st56" d="M391.7,330.2l6.3,0.6l1.4,3.7l-4.9,3.1l-6.3-0.6l-1.4-3.7L391.7,330.2z"/>
										<path class="st56" d="M405.7,335l-6.3-0.6l-1.4-3.7l4.9-3.1l6.3,0.6l1.4,3.7L405.7,335z"/>
										<path class="st56" d="M386.8,333.3l-6.3-0.6l-1.4-3.7l4.9-3.1l6.3,0.6l1.4,3.7L386.8,333.3z"/>
										<path class="st56" d="M367.9,331.7l-6.3-0.6l-1.4-3.7l4.9-3.1l6.3,0.6l1.4,3.7L367.9,331.7z"/>
									</g>
								</g>
							</g>
						</g>
					</g>
				</g>
			</g>
			<g class="st55">
				<g>
					<g>
						<g id="id1_1_">
							<g>
								<g>
									<g id="id3_1_">
										<path class="st57" d="M334.9,357.2l6.3,0.6l1.4,3.7l-4.9,3.1l-6.3-0.6l-1.4-3.7L334.9,357.2z M353.8,358.9l6.3,0.6
											l1.4,3.7l-4.9,3.1l-6.3-0.6l-1.4-3.7L353.8,358.9z M372.7,360.6l6.3,0.6l1.4,3.7l-4.9,3.1l-6.3-0.6l-1.4-3.7L372.7,360.6z
											 M386.7,365.5l-6.3-0.6l-1.4-3.7l4.9-3.1l6.3,0.6l1.4,3.7L386.7,365.5z M367.8,363.8l-6.3-0.6l-1.4-3.7l4.9-3.1l6.3,0.6
											l1.4,3.7L367.8,363.8z M348.9,362.1l-6.3-0.6l-1.4-3.7l4.9-3.1l6.3,0.6l1.4,3.7L348.9,362.1z M338.4,350.4l6.3,0.6
											l1.4,3.7l-4.9,3.1l-6.3-0.6l-1.4-3.7L338.4,350.4z M357.3,352.1l6.3,0.6l1.4,3.7l-4.9,3.1l-6.3-0.6l-1.4-3.7L357.3,352.1z
											 M376.2,353.8l6.3,0.6l1.4,3.7l-4.9,3.1l-6.3-0.6l-1.4-3.7L376.2,353.8z M390.2,358.6l-6.3-0.6l-1.4-3.7l4.9-3.1l6.3,0.6
											l1.4,3.7L390.2,358.6z M371.3,356.9l-6.3-0.6l-1.4-3.7l4.9-3.1l6.3,0.6l1.4,3.7L371.3,356.9z M352.4,355.2l-6.3-0.6
											l-1.4-3.7l4.9-3.1l6.3,0.6l1.4,3.7L352.4,355.2z M341.9,343.6l6.3,0.6l1.4,3.7l-4.9,3.1l-6.3-0.6l-1.4-3.7L341.9,343.6z
											 M360.8,345.3l6.3,0.6l1.4,3.7l-4.9,3.1l-6.3-0.6l-1.4-3.7L360.8,345.3z M379.7,347l6.3,0.6l1.4,3.7l-4.9,3.1l-6.3-0.6
											l-1.4-3.7L379.7,347z M393.7,351.8l-6.3-0.6l-1.4-3.7l4.9-3.1l6.3,0.6l1.4,3.7L393.7,351.8z M374.8,350.1l-6.3-0.6
											l-1.4-3.7l4.9-3.1l6.3,0.6l1.4,3.7L374.8,350.1z M355.9,348.4l-6.3-0.6l-1.4-3.7l4.9-3.1l6.3,0.6l1.4,3.7L355.9,348.4z
											 M345.4,336.8l6.3,0.6l1.4,3.7l-4.9,3.1l-6.3-0.6l-1.4-3.7L345.4,336.8z M364.3,338.5l6.3,0.6l1.4,3.7l-4.9,3.1l-6.3-0.6
											l-1.4-3.7L364.3,338.5z M383.2,340.2l6.3,0.6l1.4,3.7l-4.9,3.1l-6.3-0.6l-1.4-3.7L383.2,340.2z M397.2,345l-6.3-0.6
											l-1.4-3.7l4.9-3.1l6.3,0.6l1.4,3.7L397.2,345z M378.3,343.3l-6.3-0.6l-1.4-3.7l4.9-3.1l6.3,0.6l1.4,3.7L378.3,343.3z
											 M359.4,341.6l-6.3-0.6l-1.4-3.7l4.9-3.1l6.3,0.6l1.4,3.7L359.4,341.6z M348.9,329.9l6.3,0.6l1.4,3.7l-4.9,3.1l-6.3-0.6
											l-1.4-3.7L348.9,329.9z M367.8,331.6l6.3,0.6l1.4,3.7l-4.9,3.1l-6.3-0.6l-1.4-3.7L367.8,331.6z M386.7,333.3l6.3,0.6
											l1.4,3.7l-4.9,3.1l-6.3-0.6l-1.4-3.7L386.7,333.3z M400.7,338.2l-6.3-0.6l-1.4-3.7l4.9-3.1l6.3,0.6l1.4,3.7L400.7,338.2z
											 M381.8,336.5l-6.3-0.6l-1.4-3.7l4.9-3.1l6.3,0.6l1.4,3.7L381.8,336.5z M362.9,334.8l-6.3-0.6l-1.4-3.7l4.9-3.1l6.3,0.6
											l1.4,3.7L362.9,334.8z"/>
										<path class="st57" d="M334.9,357.2l6.3,0.6l1.4,3.7l-4.9,3.1l-6.3-0.6l-1.4-3.7L334.9,357.2z"/>
										<path class="st57" d="M353.8,358.9l6.3,0.6l1.4,3.7l-4.9,3.1l-6.3-0.6l-1.4-3.7L353.8,358.9z"/>
										<path class="st57" d="M372.7,360.6l6.3,0.6l1.4,3.7l-4.9,3.1l-6.3-0.6l-1.4-3.7L372.7,360.6z"/>
										<path class="st57" d="M386.7,365.5l-6.3-0.6l-1.4-3.7l4.9-3.1l6.3,0.6l1.4,3.7L386.7,365.5z"/>
										<path class="st57" d="M367.8,363.8l-6.3-0.6l-1.4-3.7l4.9-3.1l6.3,0.6l1.4,3.7L367.8,363.8z"/>
										<path class="st57" d="M348.9,362.1l-6.3-0.6l-1.4-3.7l4.9-3.1l6.3,0.6l1.4,3.7L348.9,362.1z"/>
										<path class="st57" d="M338.4,350.4l6.3,0.6l1.4,3.7l-4.9,3.1l-6.3-0.6l-1.4-3.7L338.4,350.4z"/>
										<path class="st57" d="M357.3,352.1l6.3,0.6l1.4,3.7l-4.9,3.1l-6.3-0.6l-1.4-3.7L357.3,352.1z"/>
										<path class="st57" d="M376.2,353.8l6.3,0.6l1.4,3.7l-4.9,3.1l-6.3-0.6l-1.4-3.7L376.2,353.8z"/>
										<path class="st57" d="M390.2,358.6l-6.3-0.6l-1.4-3.7l4.9-3.1l6.3,0.6l1.4,3.7L390.2,358.6z"/>
										<path class="st57" d="M371.3,356.9l-6.3-0.6l-1.4-3.7l4.9-3.1l6.3,0.6l1.4,3.7L371.3,356.9z"/>
										<path class="st57" d="M352.4,355.2l-6.3-0.6l-1.4-3.7l4.9-3.1l6.3,0.6l1.4,3.7L352.4,355.2z"/>
										<path class="st57" d="M341.9,343.6l6.3,0.6l1.4,3.7l-4.9,3.1l-6.3-0.6l-1.4-3.7L341.9,343.6z"/>
										<path class="st57" d="M360.8,345.3l6.3,0.6l1.4,3.7l-4.9,3.1l-6.3-0.6l-1.4-3.7L360.8,345.3z"/>
										<path class="st57" d="M379.7,347l6.3,0.6l1.4,3.7l-4.9,3.1l-6.3-0.6l-1.4-3.7L379.7,347z"/>
										<path class="st57" d="M393.7,351.8l-6.3-0.6l-1.4-3.7l4.9-3.1l6.3,0.6l1.4,3.7L393.7,351.8z"/>
										<path class="st57" d="M374.8,350.1l-6.3-0.6l-1.4-3.7l4.9-3.1l6.3,0.6l1.4,3.7L374.8,350.1z"/>
										<path class="st57" d="M355.9,348.4l-6.3-0.6l-1.4-3.7l4.9-3.1l6.3,0.6l1.4,3.7L355.9,348.4z"/>
										<path class="st57" d="M345.4,336.8l6.3,0.6l1.4,3.7l-4.9,3.1l-6.3-0.6l-1.4-3.7L345.4,336.8z"/>
										<path class="st57" d="M364.3,338.5l6.3,0.6l1.4,3.7l-4.9,3.1l-6.3-0.6l-1.4-3.7L364.3,338.5z"/>
										<path class="st57" d="M383.2,340.2l6.3,0.6l1.4,3.7l-4.9,3.1l-6.3-0.6l-1.4-3.7L383.2,340.2z"/>
										<path class="st57" d="M397.2,345l-6.3-0.6l-1.4-3.7l4.9-3.1l6.3,0.6l1.4,3.7L397.2,345z"/>
										<path class="st57" d="M378.3,343.3l-6.3-0.6l-1.4-3.7l4.9-3.1l6.3,0.6l1.4,3.7L378.3,343.3z"/>
										<path class="st57" d="M359.4,341.6l-6.3-0.6l-1.4-3.7l4.9-3.1l6.3,0.6l1.4,3.7L359.4,341.6z"/>
										<path class="st57" d="M348.9,329.9l6.3,0.6l1.4,3.7l-4.9,3.1l-6.3-0.6l-1.4-3.7L348.9,329.9z"/>
										<path class="st57" d="M367.8,331.6l6.3,0.6l1.4,3.7l-4.9,3.1l-6.3-0.6l-1.4-3.7L367.8,331.6z"/>
										<path class="st57" d="M386.7,333.3l6.3,0.6l1.4,3.7l-4.9,3.1l-6.3-0.6l-1.4-3.7L386.7,333.3z"/>
										<path class="st57" d="M400.7,338.2l-6.3-0.6l-1.4-3.7l4.9-3.1l6.3,0.6l1.4,3.7L400.7,338.2z"/>
										<path class="st57" d="M381.8,336.5l-6.3-0.6l-1.4-3.7l4.9-3.1l6.3,0.6l1.4,3.7L381.8,336.5z"/>
										<path class="st57" d="M362.9,334.8l-6.3-0.6l-1.4-3.7l4.9-3.1l6.3,0.6l1.4,3.7L362.9,334.8z"/>
									</g>
								</g>
							</g>
						</g>
					</g>
				</g>
			</g>
		</g>
	</g>
</g>
<ellipse transform="matrix(1.849611e-02 -0.9998 0.9998 1.849611e-02 107.8595 569.2525)" class="st58" cx="343.9" cy="229.7" rx="7.2" ry="16.8"/>
<ellipse transform="matrix(1.849611e-02 -0.9998 0.9998 1.849611e-02 47.8539 408.487)" class="st58" cx="232" cy="179.9" rx="7.2" ry="16.8"/>
<ellipse transform="matrix(1.849611e-02 -0.9998 0.9998 1.849611e-02 40.1753 849.3132)" class="st58" cx="452.7" cy="404.2" rx="10.2" ry="23.3"/>
<g>
	<g>
		<path class="st17" d="M459.7,553.9l-1.9-1.2l2.8-1.8l0.5,0.3l-2.4,1.5l1.5,0.9L459.7,553.9z"/>
		<path class="st17" d="M460.5,554.4l2.4-1.5l-1-0.6l0.4-0.2l2.4,1.5l-0.4,0.2l-1-0.6l-2.4,1.5L460.5,554.4z"/>
		<path class="st17" d="M464.3,556.8l-2-1.3l2.8-1.8l2,1.3l-0.4,0.2l-1.5-1l-0.8,0.5l1.4,0.9l-0.4,0.2l-1.4-0.9l-0.9,0.5l1.5,1
			L464.3,556.8z"/>
	</g>
	<g>
		<path class="st17" d="M466.2,558.3c0-0.3,0.3-0.6,0.7-0.9l1.3-0.8c0.4-0.3,0.8-0.5,1.4-0.4c0.5,0,1,0.3,1.5,0.6l4.7,3
			c0.5,0.3,0.8,0.6,0.9,0.9c0,0.3-0.3,0.6-0.7,0.9l-1.2,0.8c-0.4,0.3-0.8,0.5-1.4,0.4c-0.5,0-1-0.2-1.5-0.6l-4.7-3
			C466.6,559,466.3,558.7,466.2,558.3z M472.4,562c0.3,0.2,0.6,0.3,0.8,0.3c0.3,0,0.5-0.1,0.8-0.3l1.4-0.9c0.2-0.1,0.4-0.3,0.4-0.5
			s-0.2-0.4-0.5-0.5l-4.9-3.1c-0.3-0.2-0.5-0.3-0.8-0.3c-0.3,0-0.5,0.1-0.8,0.3l-1.4,0.9c-0.2,0.1-0.4,0.3-0.4,0.5s0.2,0.4,0.5,0.5
			L472.4,562z M467.7,558.4c0-0.1,0-0.1,0.2-0.2l1.4-0.9c0.1-0.1,0.2-0.1,0.4-0.1c0.1,0,0.2,0,0.4,0.1l4.9,3.2
			c0.1,0.1,0.2,0.2,0.2,0.2c0,0.1-0.1,0.1-0.2,0.2l-1.4,0.9c-0.1,0.1-0.2,0.1-0.4,0.1c-0.1,0-0.2,0-0.4-0.1l-4.9-3.2
			C467.8,558.6,467.7,558.5,467.7,558.4z M476.4,561.9c0.2,0.2,0.3,0.5-0.1,0.7s-1,0.2-1.2,0.1L476.4,561.9z"/>
	</g>
	<path class="st17" d="M455.5,551.7l-0.6-0.4c-0.1-0.1-0.2-0.2,0-0.3l3.2-2c0.1-0.1,0.3-0.1,0.5,0l0.6,0.4c0.1,0.1,0.2,0.2,0,0.3
		l-3.2,2C455.8,551.8,455.6,551.8,455.5,551.7z"/>
	<path class="st17" d="M453.7,550.5l-0.6-0.4c-0.1-0.1-0.2-0.2,0-0.3l2.5-1.6c0.1-0.1,0.3-0.1,0.5,0l0.6,0.4c0.1,0.1,0.2,0.2,0,0.3
		l-2.5,1.6C454.1,550.6,453.8,550.6,453.7,550.5z"/>
	<path class="st17" d="M451.9,549.4l-0.6-0.4c-0.1-0.1-0.2-0.2,0-0.3l1.6-1c0.1-0.1,0.3-0.1,0.5,0l0.6,0.4c0.1,0.1,0.2,0.2,0,0.3
		l-1.6,1C452.3,549.5,452.1,549.5,451.9,549.4z"/>
</g>
</svg>
